<svg width="158" height="50" viewBox="0 0 158 50" fill="none" xmlns="http://www.w3.org/2000/svg">
<mask id="mask0_178_158" style="mask-type:alpha" maskUnits="userSpaceOnUse" x="0" y="0" width="50" height="50">
<circle cx="25" cy="25" r="23.5577" fill="#FF19FB" stroke="white" stroke-width="2.88455"/>
</mask>
<g mask="url(#mask0_178_158)">
<circle cx="25" cy="25" r="23.5" fill="url(#paint0_linear_178_158)" stroke="white" stroke-width="3"/>
<g filter="url(#filter0_d_178_158)">
<mask id="path-3-inside-1_178_158" fill="white">
<path fill-rule="evenodd" clip-rule="evenodd" d="M39.2689 21.4767L34.5077 4.48402C34.2155 3.44127 33.1334 2.8328 32.0906 3.12497C31.0478 3.41714 30.4394 4.49931 30.7315 5.54206L34.2156 17.9765L8.61939 3.5846C7.67546 3.05385 6.48 3.38881 5.94926 4.33274C5.41851 5.27667 5.75347 6.47213 6.6974 7.00288L32.2936 21.3948L31.7301 21.5527C31.3372 21.3838 30.8867 21.3416 30.442 21.4626L13.4138 26.0949C12.3689 26.3792 11.7522 27.4567 12.0365 28.5017L16.6689 45.5299C16.9531 46.5748 18.0307 47.1915 19.0756 46.9072C20.1205 46.6229 20.7372 45.5454 20.4529 44.5005L17.0632 32.04L42.1689 46.4074C43.1087 46.9453 44.3067 46.6194 44.8446 45.6795C45.3825 44.7396 45.0566 43.5417 44.1167 43.0038L19.011 28.6364L19.4852 28.5074C19.9111 28.7284 20.4186 28.7946 20.9172 28.6549L37.9098 23.8938C38.9526 23.6016 39.561 22.5194 39.2689 21.4767Z"/>
</mask>
<path fill-rule="evenodd" clip-rule="evenodd" d="M39.2689 21.4767L34.5077 4.48402C34.2155 3.44127 33.1334 2.8328 32.0906 3.12497C31.0478 3.41714 30.4394 4.49931 30.7315 5.54206L34.2156 17.9765L8.61939 3.5846C7.67546 3.05385 6.48 3.38881 5.94926 4.33274C5.41851 5.27667 5.75347 6.47213 6.6974 7.00288L32.2936 21.3948L31.7301 21.5527C31.3372 21.3838 30.8867 21.3416 30.442 21.4626L13.4138 26.0949C12.3689 26.3792 11.7522 27.4567 12.0365 28.5017L16.6689 45.5299C16.9531 46.5748 18.0307 47.1915 19.0756 46.9072C20.1205 46.6229 20.7372 45.5454 20.4529 44.5005L17.0632 32.04L42.1689 46.4074C43.1087 46.9453 44.3067 46.6194 44.8446 45.6795C45.3825 44.7396 45.0566 43.5417 44.1167 43.0038L19.011 28.6364L19.4852 28.5074C19.9111 28.7284 20.4186 28.7946 20.9172 28.6549L37.9098 23.8938C38.9526 23.6016 39.561 22.5194 39.2689 21.4767Z" fill="white" fill-opacity="0.1" shape-rendering="crispEdges"/>
<path d="M34.5077 4.48402L38.2111 3.44636L38.2111 3.44635L34.5077 4.48402ZM39.2689 21.4767L42.9723 20.439L42.9723 20.439L39.2689 21.4767ZM32.0906 3.12497L31.0529 -0.578469L31.0529 -0.578468L32.0906 3.12497ZM30.7315 5.54206L34.435 4.50439L34.435 4.50439L30.7315 5.54206ZM34.2156 17.9765L32.3306 21.329L40.4241 25.8797L37.919 16.9388L34.2156 17.9765ZM8.61939 3.5846L10.5044 0.232128L8.61939 3.5846ZM5.94926 4.33274L9.30172 6.21773L9.30172 6.21773L5.94926 4.33274ZM6.6974 7.00288L4.81242 10.3553L4.81242 10.3553L6.6974 7.00288ZM32.2936 21.3948L33.3312 25.0982L42.2721 22.5931L34.1785 18.0423L32.2936 21.3948ZM31.7301 21.5527L30.211 25.086L31.4593 25.6227L32.7677 25.2561L31.7301 21.5527ZM30.442 21.4626L31.4516 25.1738L31.4516 25.1738L30.442 21.4626ZM13.4138 26.0949L12.4042 22.3837L12.4042 22.3837L13.4138 26.0949ZM12.0365 28.5017L15.7477 27.4921L15.7477 27.4921L12.0365 28.5017ZM16.6689 45.5299L20.3801 44.5203L20.3801 44.5203L16.6689 45.5299ZM19.0756 46.9072L18.066 43.196L18.066 43.196L19.0756 46.9072ZM20.4529 44.5005L24.1641 43.4909L24.1641 43.4909L20.4529 44.5005ZM17.0632 32.04L18.9735 28.7019L10.9146 24.09L13.352 33.0496L17.0632 32.04ZM42.1689 46.4074L40.2585 49.7455L40.2585 49.7455L42.1689 46.4074ZM44.8446 45.6795L48.1827 47.5898L48.1827 47.5898L44.8446 45.6795ZM44.1167 43.0038L46.027 39.6657L46.027 39.6657L44.1167 43.0038ZM19.011 28.6364L18.0014 24.9252L9.04177 27.3625L17.1007 31.9745L19.011 28.6364ZM19.4852 28.5074L21.257 25.0938L19.9244 24.402L18.4756 24.7962L19.4852 28.5074ZM20.9172 28.6549L19.8795 24.9515L19.8795 24.9515L20.9172 28.6549ZM37.9098 23.8938L36.8721 20.1903L36.8721 20.1903L37.9098 23.8938ZM30.8043 5.52169L35.5654 22.5143L42.9723 20.439L38.2111 3.44636L30.8043 5.52169ZM33.1283 6.82841C32.1257 7.10933 31.0852 6.52429 30.8043 5.52169L38.2111 3.44635C37.3459 0.358252 34.141 -1.44372 31.0529 -0.578469L33.1283 6.82841ZM34.435 4.50439C34.7159 5.507 34.1309 6.54749 33.1283 6.82841L31.0529 -0.578468C27.9648 0.286787 26.1628 3.49162 27.0281 6.57973L34.435 4.50439ZM37.919 16.9388L34.435 4.50439L27.0281 6.57973L30.5121 19.0142L37.919 16.9388ZM6.73441 6.93706L32.3306 21.329L36.1005 14.624L10.5044 0.232128L6.73441 6.93706ZM9.30172 6.21773C8.79142 7.12531 7.64199 7.44737 6.73441 6.93706L10.5044 0.232128C7.70893 -1.33966 4.16858 -0.347694 2.59679 2.44776L9.30172 6.21773ZM8.58239 3.65041C9.48997 4.16072 9.81203 5.31014 9.30172 6.21773L2.59679 2.44776C1.025 5.2432 2.01697 8.78355 4.81242 10.3553L8.58239 3.65041ZM34.1785 18.0423L8.58239 3.65041L4.81242 10.3553L30.4086 24.7473L34.1785 18.0423ZM32.7677 25.2561L33.3312 25.0982L31.2559 17.6913L30.6924 17.8492L32.7677 25.2561ZM31.4516 25.1738C31.0278 25.2891 30.588 25.2481 30.211 25.086L33.2492 18.0193C32.0865 17.5195 30.7456 17.3942 29.4324 17.7514L31.4516 25.1738ZM14.4234 29.8061L31.4516 25.1738L29.4324 17.7514L12.4042 22.3837L14.4234 29.8061ZM15.7477 27.4921C16.021 28.4968 15.4281 29.5328 14.4234 29.8061L12.4042 22.3837C9.30967 23.2256 7.48347 26.4167 8.32532 29.5113L15.7477 27.4921ZM20.3801 44.5203L15.7477 27.4921L8.32532 29.5113L12.9577 46.5395L20.3801 44.5203ZM18.066 43.196C19.0707 42.9227 20.1067 43.5156 20.3801 44.5203L12.9577 46.5395C13.7995 49.634 16.9906 51.4602 20.0852 50.6184L18.066 43.196ZM16.7417 45.5101C16.4684 44.5054 17.0613 43.4693 18.066 43.196L20.0852 50.6184C23.1798 49.7765 25.006 46.5854 24.1641 43.4909L16.7417 45.5101ZM13.352 33.0496L16.7417 45.5101L24.1641 43.4909L20.7744 31.0304L13.352 33.0496ZM44.0792 43.0693L18.9735 28.7019L15.1529 35.3781L40.2585 49.7455L44.0792 43.0693ZM41.5065 43.7692C42.0237 42.8655 43.1755 42.5522 44.0792 43.0693L40.2585 49.7455C43.042 51.3384 46.5898 50.3733 48.1827 47.5898L41.5065 43.7692ZM42.2064 46.3419C41.3027 45.8247 40.9893 44.6729 41.5065 43.7692L48.1827 47.5898C49.7756 44.8064 48.8105 41.2586 46.027 39.6657L42.2064 46.3419ZM17.1007 31.9745L42.2064 46.3419L46.027 39.6657L20.9213 25.2983L17.1007 31.9745ZM18.4756 24.7962L18.0014 24.9252L20.0206 32.3476L20.4948 32.2186L18.4756 24.7962ZM19.8795 24.9515C20.357 24.8177 20.8515 24.8832 21.257 25.0938L17.7133 31.921C18.9707 32.5736 20.4803 32.7715 21.9548 32.3584L19.8795 24.9515ZM36.8721 20.1903L19.8795 24.9515L21.9548 32.3584L38.9475 27.5972L36.8721 20.1903ZM35.5654 22.5143C35.2845 21.5117 35.8695 20.4712 36.8721 20.1903L38.9475 27.5972C42.0356 26.7319 43.8375 23.5271 42.9723 20.439L35.5654 22.5143Z" fill="white" fill-opacity="0.5" mask="url(#path-3-inside-1_178_158)"/>
</g>
</g>
<path d="M33.6452 24.9998C33.6452 29.7791 29.7708 33.6535 24.9915 33.6535C20.2123 33.6535 16.3379 29.7791 16.3379 24.9998C16.3379 20.2206 20.2123 16.3462 24.9915 16.3462C29.7708 16.3462 33.6452 20.2206 33.6452 24.9998Z" fill="white"/>
<path fill-rule="evenodd" clip-rule="evenodd" d="M30.1613 23.8812C30.7839 23.7328 31.4135 24.1374 31.4178 24.7776C31.4371 27.6906 29.504 30.3634 26.5653 31.1526C23.0738 32.0902 19.485 30.0136 18.5494 26.5145C17.6139 23.0153 19.6859 19.4186 23.1774 18.481C24.7364 18.0624 26.3148 18.2447 27.6677 18.8862C27.706 18.9044 27.719 18.9521 27.6981 18.989V18.989V18.989C27.0987 20.0494 25.7602 20.401 24.5466 20.4957C24.2848 20.5161 24.0212 20.5609 23.7583 20.6314C21.4518 21.2508 20.083 23.6268 20.7011 25.9384C21.3191 28.2499 23.6899 29.6217 25.9964 29.0023C27.8113 28.515 29.0457 26.9399 29.1882 25.1645C29.2354 24.5778 29.589 24.0176 30.1613 23.8812V23.8812Z" fill="url(#paint1_linear_178_158)"/>
<rect x="24.4316" y="23.8472" width="6.90194" height="1.90815" rx="0.954076" fill="url(#paint2_linear_178_158)"/>
<path d="M69.024 32.692C67.296 32.692 65.824 32.332 64.608 31.612C63.392 30.876 62.464 29.86 61.824 28.564C61.184 27.252 60.864 25.724 60.864 23.98C60.864 22.684 61.04 21.508 61.392 20.452C61.76 19.38 62.288 18.46 62.976 17.692C63.68 16.924 64.536 16.34 65.544 15.94C66.552 15.524 67.696 15.316 68.976 15.316C70.272 15.316 71.432 15.524 72.456 15.94C73.48 16.356 74.328 16.98 75 17.812C75.688 18.628 76.136 19.652 76.344 20.884H72.864C72.736 20.356 72.504 19.924 72.168 19.588C71.832 19.236 71.408 18.972 70.896 18.796C70.4 18.62 69.832 18.532 69.192 18.532C68.312 18.532 67.568 18.684 66.96 18.988C66.352 19.292 65.856 19.708 65.472 20.236C65.104 20.748 64.832 21.34 64.656 22.012C64.496 22.668 64.416 23.348 64.416 24.052C64.416 25.012 64.576 25.908 64.896 26.74C65.216 27.556 65.72 28.22 66.408 28.732C67.096 29.228 68.008 29.476 69.144 29.476C69.896 29.476 70.56 29.364 71.136 29.14C71.728 28.9 72.2 28.548 72.552 28.084C72.92 27.604 73.128 27.028 73.176 26.356H68.544V23.404H76.704V24.34C76.704 26.068 76.416 27.556 75.84 28.804C75.264 30.052 74.408 31.012 73.272 31.684C72.136 32.356 70.72 32.692 69.024 32.692ZM78.8981 32.5V19.852H82.2581V32.5H78.8981ZM80.5781 18.58C79.9541 18.58 79.4501 18.396 79.0661 18.028C78.6821 17.644 78.4901 17.156 78.4901 16.564C78.4901 15.94 78.6901 15.436 79.0901 15.052C79.4901 14.668 79.9941 14.476 80.6021 14.476C81.1621 14.476 81.6421 14.668 82.0421 15.052C82.4581 15.42 82.6661 15.916 82.6661 16.54C82.6661 17.148 82.4661 17.644 82.0661 18.028C81.6821 18.396 81.1861 18.58 80.5781 18.58ZM91.0176 38.356C90.0256 38.356 89.1136 38.196 88.2816 37.876C87.4496 37.572 86.7456 37.084 86.1696 36.412C85.5936 35.74 85.2016 34.876 84.9936 33.82H88.4256C88.5376 34.14 88.7136 34.404 88.9536 34.612C89.2096 34.836 89.5136 35.004 89.8656 35.116C90.2336 35.228 90.6176 35.284 91.0176 35.284C91.7696 35.284 92.3536 35.124 92.7696 34.804C93.1856 34.484 93.4736 34.06 93.6336 33.532C93.7936 33.02 93.8736 32.452 93.8736 31.828V30.94C93.5856 31.404 93.2256 31.756 92.7936 31.996C92.3616 32.236 91.9056 32.404 91.4256 32.5C90.9616 32.612 90.5136 32.668 90.0816 32.668C88.7536 32.668 87.6736 32.372 86.8416 31.78C86.0096 31.188 85.4016 30.412 85.0176 29.452C84.6336 28.476 84.4416 27.428 84.4416 26.308C84.4416 25.076 84.6576 23.956 85.0896 22.948C85.5216 21.94 86.1696 21.14 87.0336 20.548C87.8976 19.956 88.9776 19.66 90.2736 19.66C91.0576 19.66 91.7536 19.788 92.3616 20.044C92.9696 20.284 93.4896 20.644 93.9216 21.124L94.2096 19.852H97.2816V30.892C97.2816 32.428 97.0816 33.748 96.6816 34.852C96.2816 35.972 95.6176 36.836 94.6896 37.444C93.7776 38.052 92.5536 38.356 91.0176 38.356ZM90.8256 29.644C91.5296 29.644 92.1056 29.484 92.5536 29.164C93.0176 28.844 93.3616 28.42 93.5856 27.892C93.8096 27.348 93.9216 26.764 93.9216 26.14C93.9216 25.484 93.8096 24.9 93.5856 24.388C93.3616 23.86 93.0256 23.444 92.5776 23.14C92.1296 22.82 91.5536 22.66 90.8496 22.66C90.0816 22.66 89.4736 22.844 89.0256 23.212C88.5776 23.564 88.2576 24.012 88.0656 24.556C87.8896 25.084 87.8016 25.644 87.8016 26.236C87.8016 26.844 87.8976 27.412 88.0896 27.94C88.2816 28.452 88.6016 28.868 89.0496 29.188C89.4976 29.492 90.0896 29.644 90.8256 29.644ZM106.81 32.692C105.626 32.692 104.522 32.508 103.498 32.14C102.49 31.772 101.642 31.188 100.954 30.388C100.282 29.588 99.8576 28.556 99.6816 27.292H103.186C103.33 27.836 103.594 28.276 103.978 28.612C104.362 28.932 104.818 29.164 105.346 29.308C105.89 29.452 106.458 29.524 107.05 29.524C107.498 29.524 107.938 29.468 108.37 29.356C108.802 29.244 109.154 29.052 109.426 28.78C109.714 28.508 109.858 28.14 109.858 27.676C109.858 27.324 109.778 27.036 109.618 26.812C109.474 26.588 109.258 26.412 108.97 26.284C108.698 26.14 108.362 26.012 107.962 25.9C107.626 25.804 107.274 25.724 106.906 25.66C106.554 25.596 106.202 25.516 105.85 25.42C105.514 25.324 105.186 25.212 104.866 25.084C104.258 24.924 103.674 24.732 103.114 24.508C102.554 24.268 102.058 23.972 101.626 23.62C101.194 23.252 100.85 22.796 100.594 22.252C100.354 21.708 100.234 21.052 100.234 20.284C100.234 19.452 100.37 18.748 100.642 18.172C100.93 17.596 101.306 17.124 101.77 16.756C102.25 16.372 102.778 16.076 103.354 15.868C103.946 15.66 104.538 15.516 105.13 15.436C105.722 15.356 106.282 15.316 106.81 15.316C107.914 15.316 108.906 15.508 109.786 15.892C110.666 16.276 111.386 16.852 111.946 17.62C112.506 18.388 112.826 19.356 112.906 20.524H109.57C109.506 20.044 109.33 19.652 109.042 19.348C108.754 19.044 108.386 18.82 107.938 18.676C107.506 18.532 107.018 18.46 106.474 18.46C106.122 18.46 105.778 18.492 105.442 18.556C105.106 18.62 104.802 18.724 104.53 18.868C104.274 18.996 104.066 19.172 103.906 19.396C103.762 19.62 103.69 19.892 103.69 20.212C103.69 20.532 103.778 20.812 103.954 21.052C104.13 21.276 104.386 21.476 104.722 21.652C105.074 21.812 105.482 21.964 105.946 22.108C106.426 22.268 106.93 22.396 107.458 22.492C107.986 22.588 108.49 22.716 108.97 22.876C109.578 23.036 110.146 23.228 110.674 23.452C111.202 23.66 111.666 23.932 112.066 24.268C112.466 24.588 112.778 25.004 113.002 25.516C113.226 26.012 113.338 26.628 113.338 27.364C113.338 28.34 113.154 29.172 112.786 29.86C112.434 30.532 111.946 31.076 111.322 31.492C110.714 31.908 110.018 32.212 109.234 32.404C108.45 32.596 107.642 32.692 106.81 32.692ZM121.357 38.332C120.381 38.332 119.429 38.204 118.501 37.948C117.573 37.692 116.701 37.26 115.885 36.652L117.013 33.964C117.525 34.348 118.109 34.652 118.765 34.876C119.421 35.116 120.149 35.236 120.949 35.236C122.181 35.236 123.093 34.948 123.685 34.372C124.293 33.796 124.597 32.964 124.597 31.876V31.204C124.325 31.572 123.981 31.868 123.565 32.092C123.165 32.3 122.733 32.452 122.269 32.548C121.805 32.644 121.341 32.692 120.877 32.692C119.661 32.692 118.685 32.436 117.949 31.924C117.213 31.412 116.677 30.716 116.341 29.836C116.021 28.94 115.861 27.924 115.861 26.788V19.852H119.221V26.092C119.221 26.508 119.245 26.924 119.293 27.34C119.341 27.756 119.453 28.14 119.629 28.492C119.805 28.844 120.069 29.132 120.421 29.356C120.773 29.564 121.245 29.668 121.837 29.668C122.605 29.668 123.181 29.484 123.565 29.116C123.949 28.732 124.205 28.252 124.333 27.676C124.477 27.1 124.549 26.5 124.549 25.876V19.852H127.909V30.676C127.909 31.828 127.797 32.876 127.573 33.82C127.365 34.764 127.005 35.572 126.493 36.244C125.997 36.916 125.325 37.428 124.477 37.78C123.645 38.148 122.605 38.332 121.357 38.332ZM130.554 32.5V19.852H133.698L133.866 21.316C134.218 20.884 134.618 20.548 135.066 20.308C135.53 20.052 135.994 19.876 136.458 19.78C136.938 19.684 137.37 19.636 137.754 19.636C138.97 19.636 139.914 19.9 140.586 20.428C141.274 20.956 141.762 21.668 142.05 22.564C142.354 23.444 142.506 24.428 142.506 25.516V32.5H139.146V25.948C139.146 25.564 139.114 25.18 139.05 24.796C138.986 24.412 138.866 24.06 138.69 23.74C138.53 23.42 138.298 23.164 137.994 22.972C137.69 22.78 137.29 22.684 136.794 22.684C136.154 22.684 135.618 22.844 135.186 23.164C134.754 23.484 134.434 23.916 134.226 24.46C134.018 25.004 133.914 25.604 133.914 26.26V32.5H130.554ZM150.75 32.668C149.454 32.668 148.342 32.404 147.414 31.876C146.502 31.348 145.806 30.604 145.326 29.644C144.846 28.668 144.606 27.524 144.606 26.212C144.606 24.884 144.854 23.732 145.35 22.756C145.846 21.764 146.558 20.996 147.486 20.452C148.43 19.908 149.566 19.636 150.894 19.636C151.918 19.636 152.83 19.82 153.63 20.188C154.43 20.556 155.07 21.084 155.55 21.772C156.046 22.46 156.334 23.308 156.414 24.316H153.126C152.982 23.756 152.702 23.348 152.286 23.092C151.886 22.836 151.406 22.708 150.846 22.708C150.126 22.708 149.55 22.884 149.118 23.236C148.702 23.588 148.398 24.036 148.206 24.58C148.03 25.124 147.942 25.668 147.942 26.212C147.942 26.804 148.038 27.364 148.23 27.892C148.422 28.404 148.726 28.828 149.142 29.164C149.574 29.484 150.134 29.644 150.822 29.644C151.398 29.644 151.902 29.516 152.334 29.26C152.766 28.988 153.046 28.572 153.174 28.012H156.534C156.454 29.052 156.142 29.916 155.598 30.604C155.054 31.292 154.358 31.812 153.51 32.164C152.678 32.5 151.758 32.668 150.75 32.668Z" fill="white"/>
<defs>
<filter id="filter0_d_178_158" x="2.91944" y="3.05176" width="44.9619" height="49.4805" filterUnits="userSpaceOnUse" color-interpolation-filters="sRGB">
<feFlood flood-opacity="0" result="BackgroundImageFix"/>
<feColorMatrix in="SourceAlpha" type="matrix" values="0 0 0 0 0 0 0 0 0 0 0 0 0 0 0 0 0 0 127 0" result="hardAlpha"/>
<feOffset dy="2.77783"/>
<feGaussianBlur stdDeviation="1.38891"/>
<feComposite in2="hardAlpha" operator="out"/>
<feColorMatrix type="matrix" values="0 0 0 0 0 0 0 0 0 0 0 0 0 0 0 0 0 0 0.25 0"/>
<feBlend mode="normal" in2="BackgroundImageFix" result="effect1_dropShadow_178_158"/>
<feBlend mode="normal" in="SourceGraphic" in2="effect1_dropShadow_178_158" result="shape"/>
</filter>
<linearGradient id="paint0_linear_178_158" x1="8.52941" y1="6.76471" x2="41.3725" y2="43.8235" gradientUnits="userSpaceOnUse">
<stop stop-color="#1BB9CB"/>
<stop offset="1" stop-color="#390AD4"/>
</linearGradient>
<linearGradient id="paint1_linear_178_158" x1="10.3795" y1="13.6834" x2="42.5206" y2="36.5417" gradientUnits="userSpaceOnUse">
<stop stop-color="#1EA6CC"/>
<stop offset="1" stop-color="#390ED4"/>
</linearGradient>
<linearGradient id="paint2_linear_178_158" x1="21.984" y1="22.6903" x2="23.5784" y2="29.7794" gradientUnits="userSpaceOnUse">
<stop stop-color="#1EA6CC"/>
<stop offset="1" stop-color="#390ED4"/>
</linearGradient>
</defs>
</svg>
