<svg width="98" height="86" viewBox="0 0 98 86" fill="none" xmlns="http://www.w3.org/2000/svg">
<mask id="mask0_184_771" style="mask-type:alpha" maskUnits="userSpaceOnUse" x="24" y="0" width="50" height="50">
<circle cx="49" cy="25" r="23.5577" fill="#FF19FB" stroke="white" stroke-width="2.88455"/>
</mask>
<g mask="url(#mask0_184_771)">
<circle cx="49" cy="25" r="23.5" fill="url(#paint0_linear_184_771)" stroke="white" stroke-width="3"/>
<g filter="url(#filter0_d_184_771)">
<mask id="path-3-inside-1_184_771" fill="white">
<path fill-rule="evenodd" clip-rule="evenodd" d="M63.2689 21.4767L58.5077 4.48402C58.2155 3.44127 57.1334 2.8328 56.0906 3.12497C55.0478 3.41714 54.4394 4.49931 54.7315 5.54206L58.2156 17.9765L32.6194 3.5846C31.6755 3.05385 30.48 3.38881 29.9493 4.33274C29.4185 5.27667 29.7535 6.47213 30.6974 7.00288L56.2936 21.3948L55.7301 21.5527C55.3372 21.3838 54.8867 21.3416 54.442 21.4626L37.4138 26.0949C36.3689 26.3792 35.7522 27.4567 36.0365 28.5017L40.6689 45.5299C40.9531 46.5748 42.0307 47.1915 43.0756 46.9072C44.1205 46.6229 44.7372 45.5454 44.4529 44.5005L41.0632 32.04L66.1689 46.4074C67.1087 46.9453 68.3067 46.6194 68.8446 45.6795C69.3825 44.7396 69.0566 43.5417 68.1167 43.0038L43.011 28.6364L43.4852 28.5074C43.9111 28.7284 44.4186 28.7946 44.9172 28.6549L61.9098 23.8938C62.9526 23.6016 63.561 22.5194 63.2689 21.4767Z"/>
</mask>
<path fill-rule="evenodd" clip-rule="evenodd" d="M63.2689 21.4767L58.5077 4.48402C58.2155 3.44127 57.1334 2.8328 56.0906 3.12497C55.0478 3.41714 54.4394 4.49931 54.7315 5.54206L58.2156 17.9765L32.6194 3.5846C31.6755 3.05385 30.48 3.38881 29.9493 4.33274C29.4185 5.27667 29.7535 6.47213 30.6974 7.00288L56.2936 21.3948L55.7301 21.5527C55.3372 21.3838 54.8867 21.3416 54.442 21.4626L37.4138 26.0949C36.3689 26.3792 35.7522 27.4567 36.0365 28.5017L40.6689 45.5299C40.9531 46.5748 42.0307 47.1915 43.0756 46.9072C44.1205 46.6229 44.7372 45.5454 44.4529 44.5005L41.0632 32.04L66.1689 46.4074C67.1087 46.9453 68.3067 46.6194 68.8446 45.6795C69.3825 44.7396 69.0566 43.5417 68.1167 43.0038L43.011 28.6364L43.4852 28.5074C43.9111 28.7284 44.4186 28.7946 44.9172 28.6549L61.9098 23.8938C62.9526 23.6016 63.561 22.5194 63.2689 21.4767Z" fill="white" fill-opacity="0.1" shape-rendering="crispEdges"/>
<path d="M58.5077 4.48402L62.2111 3.44636L62.2111 3.44635L58.5077 4.48402ZM63.2689 21.4767L66.9723 20.439L66.9723 20.439L63.2689 21.4767ZM56.0906 3.12497L55.0529 -0.578469L55.0529 -0.578468L56.0906 3.12497ZM54.7315 5.54206L58.435 4.50439L58.435 4.50439L54.7315 5.54206ZM58.2156 17.9765L56.3306 21.329L64.4241 25.8797L61.919 16.9388L58.2156 17.9765ZM32.6194 3.5846L34.5044 0.232128L32.6194 3.5846ZM29.9493 4.33274L33.3017 6.21773L33.3017 6.21773L29.9493 4.33274ZM30.6974 7.00288L28.8124 10.3553L28.8124 10.3553L30.6974 7.00288ZM56.2936 21.3948L57.3312 25.0982L66.2721 22.5931L58.1785 18.0423L56.2936 21.3948ZM55.7301 21.5527L54.211 25.086L55.4593 25.6227L56.7677 25.2561L55.7301 21.5527ZM54.442 21.4626L55.4516 25.1738L55.4516 25.1738L54.442 21.4626ZM37.4138 26.0949L36.4042 22.3837L36.4042 22.3837L37.4138 26.0949ZM36.0365 28.5017L39.7477 27.4921L39.7477 27.4921L36.0365 28.5017ZM40.6689 45.5299L44.3801 44.5203L44.3801 44.5203L40.6689 45.5299ZM43.0756 46.9072L42.066 43.196L42.066 43.196L43.0756 46.9072ZM44.4529 44.5005L48.1641 43.4909L48.1641 43.4909L44.4529 44.5005ZM41.0632 32.04L42.9735 28.7019L34.9146 24.09L37.352 33.0496L41.0632 32.04ZM66.1689 46.4074L64.2585 49.7455L64.2585 49.7455L66.1689 46.4074ZM68.8446 45.6795L72.1827 47.5898L72.1827 47.5898L68.8446 45.6795ZM68.1167 43.0038L70.027 39.6657L70.027 39.6657L68.1167 43.0038ZM43.011 28.6364L42.0014 24.9252L33.0418 27.3625L41.1007 31.9745L43.011 28.6364ZM43.4852 28.5074L45.257 25.0938L43.9244 24.402L42.4756 24.7962L43.4852 28.5074ZM44.9172 28.6549L43.8795 24.9515L43.8795 24.9515L44.9172 28.6549ZM61.9098 23.8938L60.8721 20.1903L60.8721 20.1903L61.9098 23.8938ZM54.8043 5.52169L59.5654 22.5143L66.9723 20.439L62.2111 3.44636L54.8043 5.52169ZM57.1283 6.82841C56.1257 7.10933 55.0852 6.52429 54.8043 5.52169L62.2111 3.44635C61.3459 0.358252 58.141 -1.44372 55.0529 -0.578469L57.1283 6.82841ZM58.435 4.50439C58.7159 5.507 58.1309 6.54749 57.1283 6.82841L55.0529 -0.578468C51.9648 0.286787 50.1628 3.49162 51.0281 6.57973L58.435 4.50439ZM61.919 16.9388L58.435 4.50439L51.0281 6.57973L54.5121 19.0142L61.919 16.9388ZM30.7344 6.93706L56.3306 21.329L60.1005 14.624L34.5044 0.232128L30.7344 6.93706ZM33.3017 6.21773C32.7914 7.12531 31.642 7.44737 30.7344 6.93706L34.5044 0.232128C31.7089 -1.33966 28.1686 -0.347694 26.5968 2.44776L33.3017 6.21773ZM32.5824 3.65041C33.49 4.16072 33.812 5.31014 33.3017 6.21773L26.5968 2.44776C25.025 5.2432 26.017 8.78355 28.8124 10.3553L32.5824 3.65041ZM58.1785 18.0423L32.5824 3.65041L28.8124 10.3553L54.4086 24.7473L58.1785 18.0423ZM56.7677 25.2561L57.3312 25.0982L55.2559 17.6913L54.6924 17.8492L56.7677 25.2561ZM55.4516 25.1738C55.0278 25.2891 54.588 25.2481 54.211 25.086L57.2492 18.0193C56.0865 17.5195 54.7456 17.3942 53.4324 17.7514L55.4516 25.1738ZM38.4234 29.8061L55.4516 25.1738L53.4324 17.7514L36.4042 22.3837L38.4234 29.8061ZM39.7477 27.4921C40.021 28.4968 39.4281 29.5328 38.4234 29.8061L36.4042 22.3837C33.3097 23.2256 31.4835 26.4167 32.3253 29.5113L39.7477 27.4921ZM44.3801 44.5203L39.7477 27.4921L32.3253 29.5113L36.9577 46.5395L44.3801 44.5203ZM42.066 43.196C43.0707 42.9227 44.1067 43.5156 44.3801 44.5203L36.9577 46.5395C37.7995 49.634 40.9906 51.4602 44.0852 50.6184L42.066 43.196ZM40.7417 45.5101C40.4684 44.5054 41.0613 43.4693 42.066 43.196L44.0852 50.6184C47.1798 49.7765 49.006 46.5854 48.1641 43.4909L40.7417 45.5101ZM37.352 33.0496L40.7417 45.5101L48.1641 43.4909L44.7744 31.0304L37.352 33.0496ZM68.0792 43.0693L42.9735 28.7019L39.1529 35.3781L64.2585 49.7455L68.0792 43.0693ZM65.5065 43.7692C66.0237 42.8655 67.1755 42.5522 68.0792 43.0693L64.2585 49.7455C67.042 51.3384 70.5898 50.3733 72.1827 47.5898L65.5065 43.7692ZM66.2064 46.3419C65.3027 45.8247 64.9893 44.6729 65.5065 43.7692L72.1827 47.5898C73.7756 44.8064 72.8105 41.2586 70.027 39.6657L66.2064 46.3419ZM41.1007 31.9745L66.2064 46.3419L70.027 39.6657L44.9213 25.2983L41.1007 31.9745ZM42.4756 24.7962L42.0014 24.9252L44.0206 32.3476L44.4948 32.2186L42.4756 24.7962ZM43.8795 24.9515C44.357 24.8177 44.8515 24.8832 45.257 25.0938L41.7133 31.921C42.9707 32.5736 44.4803 32.7715 45.9548 32.3584L43.8795 24.9515ZM60.8721 20.1903L43.8795 24.9515L45.9548 32.3584L62.9475 27.5972L60.8721 20.1903ZM59.5654 22.5143C59.2845 21.5117 59.8695 20.4712 60.8721 20.1903L62.9475 27.5972C66.0356 26.7319 67.8375 23.5271 66.9723 20.439L59.5654 22.5143Z" fill="white" fill-opacity="0.5" mask="url(#path-3-inside-1_184_771)"/>
</g>
</g>
<path d="M57.6452 24.9998C57.6452 29.7791 53.7708 33.6535 48.9915 33.6535C44.2123 33.6535 40.3379 29.7791 40.3379 24.9998C40.3379 20.2206 44.2123 16.3462 48.9915 16.3462C53.7708 16.3462 57.6452 20.2206 57.6452 24.9998Z" fill="white"/>
<path fill-rule="evenodd" clip-rule="evenodd" d="M54.1613 23.8812C54.7839 23.7328 55.4135 24.1374 55.4178 24.7776C55.4371 27.6906 53.504 30.3634 50.5653 31.1526C47.0738 32.0902 43.485 30.0136 42.5494 26.5145C41.6139 23.0153 43.6859 19.4186 47.1774 18.481C48.7364 18.0624 50.3148 18.2447 51.6677 18.8862C51.706 18.9044 51.719 18.9521 51.6981 18.989V18.989V18.989C51.0987 20.0494 49.7602 20.401 48.5466 20.4957C48.2848 20.5161 48.0212 20.5609 47.7583 20.6314C45.4518 21.2508 44.083 23.6268 44.7011 25.9384C45.3191 28.2499 47.6899 29.6217 49.9964 29.0023C51.8113 28.515 53.0457 26.9399 53.1882 25.1645C53.2354 24.5778 53.589 24.0176 54.1613 23.8812V23.8812Z" fill="url(#paint1_linear_184_771)"/>
<rect x="48.4316" y="23.8472" width="6.90194" height="1.90815" rx="0.954076" fill="url(#paint2_linear_184_771)"/>
<path d="M9.024 78.192C7.296 78.192 5.824 77.832 4.608 77.112C3.392 76.376 2.464 75.36 1.824 74.064C1.184 72.752 0.864 71.224 0.864 69.48C0.864 68.184 1.04 67.008 1.392 65.952C1.76 64.88 2.288 63.96 2.976 63.192C3.68 62.424 4.536 61.84 5.544 61.44C6.552 61.024 7.696 60.816 8.976 60.816C10.272 60.816 11.432 61.024 12.456 61.44C13.48 61.856 14.328 62.48 15 63.312C15.688 64.128 16.136 65.152 16.344 66.384H12.864C12.736 65.856 12.504 65.424 12.168 65.088C11.832 64.736 11.408 64.472 10.896 64.296C10.4 64.12 9.832 64.032 9.192 64.032C8.312 64.032 7.568 64.184 6.96 64.488C6.352 64.792 5.856 65.208 5.472 65.736C5.104 66.248 4.832 66.84 4.656 67.512C4.496 68.168 4.416 68.848 4.416 69.552C4.416 70.512 4.576 71.408 4.896 72.24C5.216 73.056 5.72 73.72 6.408 74.232C7.096 74.728 8.008 74.976 9.144 74.976C9.896 74.976 10.56 74.864 11.136 74.64C11.728 74.4 12.2 74.048 12.552 73.584C12.92 73.104 13.128 72.528 13.176 71.856H8.544V68.904H16.704V69.84C16.704 71.568 16.416 73.056 15.84 74.304C15.264 75.552 14.408 76.512 13.272 77.184C12.136 77.856 10.72 78.192 9.024 78.192ZM18.8981 78V65.352H22.2581V78H18.8981ZM20.5781 64.08C19.9541 64.08 19.4501 63.896 19.0661 63.528C18.6821 63.144 18.4901 62.656 18.4901 62.064C18.4901 61.44 18.6901 60.936 19.0901 60.552C19.4901 60.168 19.9941 59.976 20.6021 59.976C21.1621 59.976 21.6421 60.168 22.0421 60.552C22.4581 60.92 22.6661 61.416 22.6661 62.04C22.6661 62.648 22.4661 63.144 22.0661 63.528C21.6821 63.896 21.1861 64.08 20.5781 64.08ZM31.0176 83.856C30.0256 83.856 29.1136 83.696 28.2816 83.376C27.4496 83.072 26.7456 82.584 26.1696 81.912C25.5936 81.24 25.2016 80.376 24.9936 79.32H28.4256C28.5376 79.64 28.7136 79.904 28.9536 80.112C29.2096 80.336 29.5136 80.504 29.8656 80.616C30.2336 80.728 30.6176 80.784 31.0176 80.784C31.7696 80.784 32.3536 80.624 32.7696 80.304C33.1856 79.984 33.4736 79.56 33.6336 79.032C33.7936 78.52 33.8736 77.952 33.8736 77.328V76.44C33.5856 76.904 33.2256 77.256 32.7936 77.496C32.3616 77.736 31.9056 77.904 31.4256 78C30.9616 78.112 30.5136 78.168 30.0816 78.168C28.7536 78.168 27.6736 77.872 26.8416 77.28C26.0096 76.688 25.4016 75.912 25.0176 74.952C24.6336 73.976 24.4416 72.928 24.4416 71.808C24.4416 70.576 24.6576 69.456 25.0896 68.448C25.5216 67.44 26.1696 66.64 27.0336 66.048C27.8976 65.456 28.9776 65.16 30.2736 65.16C31.0576 65.16 31.7536 65.288 32.3616 65.544C32.9696 65.784 33.4896 66.144 33.9216 66.624L34.2096 65.352H37.2816V76.392C37.2816 77.928 37.0816 79.248 36.6816 80.352C36.2816 81.472 35.6176 82.336 34.6896 82.944C33.7776 83.552 32.5536 83.856 31.0176 83.856ZM30.8256 75.144C31.5296 75.144 32.1056 74.984 32.5536 74.664C33.0176 74.344 33.3616 73.92 33.5856 73.392C33.8096 72.848 33.9216 72.264 33.9216 71.64C33.9216 70.984 33.8096 70.4 33.5856 69.888C33.3616 69.36 33.0256 68.944 32.5776 68.64C32.1296 68.32 31.5536 68.16 30.8496 68.16C30.0816 68.16 29.4736 68.344 29.0256 68.712C28.5776 69.064 28.2576 69.512 28.0656 70.056C27.8896 70.584 27.8016 71.144 27.8016 71.736C27.8016 72.344 27.8976 72.912 28.0896 73.44C28.2816 73.952 28.6016 74.368 29.0496 74.688C29.4976 74.992 30.0896 75.144 30.8256 75.144ZM46.8096 78.192C45.6256 78.192 44.5216 78.008 43.4976 77.64C42.4896 77.272 41.6416 76.688 40.9536 75.888C40.2816 75.088 39.8576 74.056 39.6816 72.792H43.1856C43.3296 73.336 43.5936 73.776 43.9776 74.112C44.3616 74.432 44.8176 74.664 45.3456 74.808C45.8896 74.952 46.4576 75.024 47.0496 75.024C47.4976 75.024 47.9376 74.968 48.3696 74.856C48.8016 74.744 49.1536 74.552 49.4256 74.28C49.7136 74.008 49.8576 73.64 49.8576 73.176C49.8576 72.824 49.7776 72.536 49.6176 72.312C49.4736 72.088 49.2576 71.912 48.9696 71.784C48.6976 71.64 48.3616 71.512 47.9616 71.4C47.6256 71.304 47.2736 71.224 46.9056 71.16C46.5536 71.096 46.2016 71.016 45.8496 70.92C45.5136 70.824 45.1856 70.712 44.8656 70.584C44.2576 70.424 43.6736 70.232 43.1136 70.008C42.5536 69.768 42.0576 69.472 41.6256 69.12C41.1936 68.752 40.8496 68.296 40.5936 67.752C40.3536 67.208 40.2336 66.552 40.2336 65.784C40.2336 64.952 40.3696 64.248 40.6416 63.672C40.9296 63.096 41.3056 62.624 41.7696 62.256C42.2496 61.872 42.7776 61.576 43.3536 61.368C43.9456 61.16 44.5376 61.016 45.1296 60.936C45.7216 60.856 46.2816 60.816 46.8096 60.816C47.9136 60.816 48.9056 61.008 49.7856 61.392C50.6656 61.776 51.3856 62.352 51.9456 63.12C52.5056 63.888 52.8256 64.856 52.9056 66.024H49.5696C49.5056 65.544 49.3296 65.152 49.0416 64.848C48.7536 64.544 48.3856 64.32 47.9376 64.176C47.5056 64.032 47.0176 63.96 46.4736 63.96C46.1216 63.96 45.7776 63.992 45.4416 64.056C45.1056 64.12 44.8016 64.224 44.5296 64.368C44.2736 64.496 44.0656 64.672 43.9056 64.896C43.7616 65.12 43.6896 65.392 43.6896 65.712C43.6896 66.032 43.7776 66.312 43.9536 66.552C44.1296 66.776 44.3856 66.976 44.7216 67.152C45.0736 67.312 45.4816 67.464 45.9456 67.608C46.4256 67.768 46.9296 67.896 47.4576 67.992C47.9856 68.088 48.4896 68.216 48.9696 68.376C49.5776 68.536 50.1456 68.728 50.6736 68.952C51.2016 69.16 51.6656 69.432 52.0656 69.768C52.4656 70.088 52.7776 70.504 53.0016 71.016C53.2256 71.512 53.3376 72.128 53.3376 72.864C53.3376 73.84 53.1536 74.672 52.7856 75.36C52.4336 76.032 51.9456 76.576 51.3216 76.992C50.7136 77.408 50.0176 77.712 49.2336 77.904C48.4496 78.096 47.6416 78.192 46.8096 78.192ZM61.3573 83.832C60.3813 83.832 59.4293 83.704 58.5013 83.448C57.5733 83.192 56.7013 82.76 55.8853 82.152L57.0133 79.464C57.5253 79.848 58.1093 80.152 58.7653 80.376C59.4213 80.616 60.1493 80.736 60.9493 80.736C62.1813 80.736 63.0933 80.448 63.6853 79.872C64.2933 79.296 64.5973 78.464 64.5973 77.376V76.704C64.3253 77.072 63.9813 77.368 63.5653 77.592C63.1653 77.8 62.7333 77.952 62.2693 78.048C61.8053 78.144 61.3413 78.192 60.8773 78.192C59.6613 78.192 58.6853 77.936 57.9493 77.424C57.2133 76.912 56.6773 76.216 56.3413 75.336C56.0213 74.44 55.8613 73.424 55.8613 72.288V65.352H59.2213V71.592C59.2213 72.008 59.2453 72.424 59.2933 72.84C59.3413 73.256 59.4533 73.64 59.6293 73.992C59.8053 74.344 60.0693 74.632 60.4213 74.856C60.7733 75.064 61.2453 75.168 61.8373 75.168C62.6053 75.168 63.1813 74.984 63.5653 74.616C63.9493 74.232 64.2053 73.752 64.3333 73.176C64.4773 72.6 64.5493 72 64.5493 71.376V65.352H67.9093V76.176C67.9093 77.328 67.7973 78.376 67.5733 79.32C67.3653 80.264 67.0053 81.072 66.4933 81.744C65.9973 82.416 65.3253 82.928 64.4773 83.28C63.6453 83.648 62.6053 83.832 61.3573 83.832ZM70.5544 78V65.352H73.6984L73.8664 66.816C74.2184 66.384 74.6184 66.048 75.0664 65.808C75.5304 65.552 75.9944 65.376 76.4584 65.28C76.9384 65.184 77.3704 65.136 77.7544 65.136C78.9704 65.136 79.9144 65.4 80.5864 65.928C81.2744 66.456 81.7624 67.168 82.0504 68.064C82.3544 68.944 82.5064 69.928 82.5064 71.016V78H79.1464V71.448C79.1464 71.064 79.1144 70.68 79.0504 70.296C78.9864 69.912 78.8664 69.56 78.6904 69.24C78.5304 68.92 78.2984 68.664 77.9944 68.472C77.6904 68.28 77.2904 68.184 76.7944 68.184C76.1544 68.184 75.6184 68.344 75.1864 68.664C74.7544 68.984 74.4344 69.416 74.2264 69.96C74.0184 70.504 73.9144 71.104 73.9144 71.76V78H70.5544ZM90.7496 78.168C89.4536 78.168 88.3416 77.904 87.4136 77.376C86.5016 76.848 85.8056 76.104 85.3256 75.144C84.8456 74.168 84.6056 73.024 84.6056 71.712C84.6056 70.384 84.8536 69.232 85.3496 68.256C85.8456 67.264 86.5576 66.496 87.4856 65.952C88.4296 65.408 89.5656 65.136 90.8936 65.136C91.9176 65.136 92.8296 65.32 93.6296 65.688C94.4296 66.056 95.0696 66.584 95.5496 67.272C96.0456 67.96 96.3336 68.808 96.4136 69.816H93.1256C92.9816 69.256 92.7016 68.848 92.2856 68.592C91.8856 68.336 91.4056 68.208 90.8456 68.208C90.1256 68.208 89.5496 68.384 89.1176 68.736C88.7016 69.088 88.3976 69.536 88.2056 70.08C88.0296 70.624 87.9416 71.168 87.9416 71.712C87.9416 72.304 88.0376 72.864 88.2296 73.392C88.4216 73.904 88.7256 74.328 89.1416 74.664C89.5736 74.984 90.1336 75.144 90.8216 75.144C91.3976 75.144 91.9016 75.016 92.3336 74.76C92.7656 74.488 93.0456 74.072 93.1736 73.512H96.5336C96.4536 74.552 96.1416 75.416 95.5976 76.104C95.0536 76.792 94.3576 77.312 93.5096 77.664C92.6776 78 91.7576 78.168 90.7496 78.168Z" fill="white"/>
<defs>
<filter id="filter0_d_184_771" x="26.9194" y="3.05176" width="44.9619" height="49.4805" filterUnits="userSpaceOnUse" color-interpolation-filters="sRGB">
<feFlood flood-opacity="0" result="BackgroundImageFix"/>
<feColorMatrix in="SourceAlpha" type="matrix" values="0 0 0 0 0 0 0 0 0 0 0 0 0 0 0 0 0 0 127 0" result="hardAlpha"/>
<feOffset dy="2.77783"/>
<feGaussianBlur stdDeviation="1.38891"/>
<feComposite in2="hardAlpha" operator="out"/>
<feColorMatrix type="matrix" values="0 0 0 0 0 0 0 0 0 0 0 0 0 0 0 0 0 0 0.25 0"/>
<feBlend mode="normal" in2="BackgroundImageFix" result="effect1_dropShadow_184_771"/>
<feBlend mode="normal" in="SourceGraphic" in2="effect1_dropShadow_184_771" result="shape"/>
</filter>
<linearGradient id="paint0_linear_184_771" x1="32.5294" y1="6.76471" x2="65.3725" y2="43.8235" gradientUnits="userSpaceOnUse">
<stop stop-color="#1BB9CB"/>
<stop offset="1" stop-color="#390AD4"/>
</linearGradient>
<linearGradient id="paint1_linear_184_771" x1="34.3795" y1="13.6834" x2="66.5206" y2="36.5417" gradientUnits="userSpaceOnUse">
<stop stop-color="#1EA6CC"/>
<stop offset="1" stop-color="#390ED4"/>
</linearGradient>
<linearGradient id="paint2_linear_184_771" x1="45.984" y1="22.6903" x2="47.5784" y2="29.7794" gradientUnits="userSpaceOnUse">
<stop stop-color="#1EA6CC"/>
<stop offset="1" stop-color="#390ED4"/>
</linearGradient>
</defs>
</svg>
