<svg width="100" height="100" viewBox="0 0 100 100" fill="none" xmlns="http://www.w3.org/2000/svg">
<mask id="mask0_149_44" style="mask-type:alpha" maskUnits="userSpaceOnUse" x="0" y="0" width="100" height="100">
<circle cx="50" cy="50" r="47.1155" fill="#FF19FB" stroke="white" stroke-width="5.7691"/>
</mask>
<g mask="url(#mask0_149_44)">
<circle cx="50" cy="50" r="47" fill="url(#paint0_linear_149_44)" stroke="white" stroke-width="6"/>
<g filter="url(#filter0_d_149_44)">
<mask id="path-3-inside-1_149_44" fill="white">
<path fill-rule="evenodd" clip-rule="evenodd" d="M78.5358 42.9548L69.0134 8.96951C68.4291 6.88401 66.2648 5.66707 64.1792 6.25141C62.0937 6.83574 60.8768 9.00008 61.4611 11.0856L68.4291 35.9545L17.2368 7.17066C15.349 6.10917 12.958 6.77908 11.8966 8.66695C10.8351 10.5548 11.505 12.9457 13.3929 14.0072L64.5852 42.791L63.4576 43.107C62.6718 42.769 61.7705 42.6845 60.8809 42.9265L26.8245 52.1912C24.7346 52.7597 23.5013 54.9148 24.0699 57.0047L33.3346 91.0611C33.9031 93.151 36.0582 94.3843 38.148 93.8157C40.2379 93.2472 41.4712 91.0922 40.9027 89.0023L34.1232 64.0813L84.3346 92.8162C86.2143 93.8919 88.6103 93.2401 89.686 91.3604C90.7618 89.4806 90.11 87.0847 88.2302 86.0089L38.0188 57.2741L38.9679 57.0159C39.8198 57.4583 40.8351 57.5908 41.8324 57.3113L75.8177 47.789C77.9032 47.2047 79.1201 45.0403 78.5358 42.9548Z"/>
</mask>
<path fill-rule="evenodd" clip-rule="evenodd" d="M78.5358 42.9548L69.0134 8.96951C68.4291 6.88401 66.2648 5.66707 64.1792 6.25141C62.0937 6.83574 60.8768 9.00008 61.4611 11.0856L68.4291 35.9545L17.2368 7.17066C15.349 6.10917 12.958 6.77908 11.8966 8.66695C10.8351 10.5548 11.505 12.9457 13.3929 14.0072L64.5852 42.791L63.4576 43.107C62.6718 42.769 61.7705 42.6845 60.8809 42.9265L26.8245 52.1912C24.7346 52.7597 23.5013 54.9148 24.0699 57.0047L33.3346 91.0611C33.9031 93.151 36.0582 94.3843 38.148 93.8157C40.2379 93.2472 41.4712 91.0922 40.9027 89.0023L34.1232 64.0813L84.3346 92.8162C86.2143 93.8919 88.6103 93.2401 89.686 91.3604C90.7618 89.4806 90.11 87.0847 88.2302 86.0089L38.0188 57.2741L38.9679 57.0159C39.8198 57.4583 40.8351 57.5908 41.8324 57.3113L75.8177 47.789C77.9032 47.2047 79.1201 45.0403 78.5358 42.9548Z" fill="white" fill-opacity="0.1" shape-rendering="crispEdges"/>
<path d="M69.0134 8.96951L76.4203 6.89418L76.4203 6.89417L69.0134 8.96951ZM78.5358 42.9548L71.1289 45.0301L71.1289 45.0302L78.5358 42.9548ZM61.4611 11.0856L68.868 9.01026L68.868 9.01025L61.4611 11.0856ZM68.4291 35.9545L64.6592 42.6594L80.8463 51.7609L75.836 33.8791L68.4291 35.9545ZM17.2368 7.17066L21.0068 0.465721L17.2368 7.17066ZM11.8966 8.66695L18.6015 12.4369L18.6015 12.4369L11.8966 8.66695ZM13.3929 14.0072L9.62288 20.7122L9.62288 20.7122L13.3929 14.0072ZM64.5852 42.791L66.6605 50.1979L84.5422 45.1876L68.3551 36.0861L64.5852 42.791ZM63.4576 43.107L60.4182 50.1731L62.9154 51.2473L65.533 50.5138L63.4576 43.107ZM60.8809 42.9265L62.9001 50.3489L62.9001 50.3489L60.8809 42.9265ZM26.8245 52.1912L24.8053 44.7688L24.8053 44.7688L26.8245 52.1912ZM24.0699 57.0047L31.4922 54.9855L31.4922 54.9855L24.0699 57.0047ZM33.3346 91.0611L40.757 89.0419L40.757 89.0419L33.3346 91.0611ZM38.148 93.8157L36.1289 86.3934L36.1289 86.3934L38.148 93.8157ZM40.9027 89.0023L48.3251 86.9831L48.3251 86.9831L40.9027 89.0023ZM34.1232 64.0813L37.9438 57.4052L21.8261 48.1813L26.7008 66.1005L34.1232 64.0813ZM84.3346 92.8162L80.5139 99.4924L80.5139 99.4924L84.3346 92.8162ZM89.686 91.3604L96.3622 95.181L96.3622 95.181L89.686 91.3604ZM88.2302 86.0089L92.0509 79.3327L92.0508 79.3327L88.2302 86.0089ZM38.0188 57.2741L35.9996 49.8517L18.0804 54.7265L34.1982 63.9503L38.0188 57.2741ZM38.9679 57.0159L42.5126 50.1892L39.847 48.8051L36.9487 49.5935L38.9679 57.0159ZM41.8324 57.3113L43.9077 64.7182L43.9077 64.7182L41.8324 57.3113ZM75.8177 47.789L73.7423 40.3821L73.7423 40.3821L75.8177 47.789ZM61.6066 11.0448L71.1289 45.0301L85.9426 40.8795L76.4203 6.89418L61.6066 11.0448ZM66.2546 13.6583C64.2494 14.2201 62.1684 13.05 61.6066 11.0448L76.4203 6.89417C74.6898 0.717969 68.2801 -2.88598 62.1039 -1.15547L66.2546 13.6583ZM68.868 9.01025C69.4299 11.0155 68.2598 13.0964 66.2546 13.6583L62.1039 -1.15547C55.9277 0.57504 52.3237 6.98471 54.0543 13.1609L68.868 9.01025ZM75.836 33.8791L68.868 9.01026L54.0543 13.1609L61.0223 38.0298L75.836 33.8791ZM13.4669 13.8756L64.6592 42.6594L72.1991 29.2495L21.0068 0.465721L13.4669 13.8756ZM18.6015 12.4369C17.5809 14.2521 15.282 14.8962 13.4669 13.8756L21.0068 0.465721C15.4159 -2.67786 8.33521 -0.693923 5.19163 4.89698L18.6015 12.4369ZM17.1628 7.30229C18.978 8.3229 19.6221 10.6218 18.6015 12.4369L5.19163 4.89698C2.04804 10.4879 4.03198 17.5686 9.62288 20.7122L17.1628 7.30229ZM68.3551 36.0861L17.1628 7.30229L9.62288 20.7122L60.8152 49.496L68.3551 36.0861ZM65.533 50.5138L66.6605 50.1979L62.5098 35.3842L61.3823 35.7001L65.533 50.5138ZM62.9001 50.3489C62.0522 50.5795 61.1723 50.4975 60.4182 50.1731L66.4971 36.0408C64.1713 35.0404 61.4887 34.7895 58.8617 35.5041L62.9001 50.3489ZM28.8437 59.6136L62.9001 50.3489L58.8617 35.5041L24.8053 44.7688L28.8437 59.6136ZM31.4922 54.9855C32.0389 56.9949 30.8531 59.067 28.8437 59.6136L24.8053 44.7688C18.6162 46.4525 14.9638 52.8347 16.6475 59.0239L31.4922 54.9855ZM40.757 89.0419L31.4922 54.9855L16.6475 59.0239L25.9122 93.0803L40.757 89.0419ZM36.1289 86.3934C38.1383 85.8467 40.2103 87.0325 40.757 89.0419L25.9122 93.0803C27.5959 99.2694 33.9781 102.922 40.1672 101.238L36.1289 86.3934ZM33.4803 91.0215C32.9337 89.0121 34.1195 86.94 36.1289 86.3934L40.1672 101.238C46.3564 99.5544 50.0087 93.1722 48.3251 86.9831L33.4803 91.0215ZM26.7008 66.1005L33.4803 91.0215L48.3251 86.9831L41.5456 62.0622L26.7008 66.1005ZM88.1552 86.14L37.9438 57.4052L30.3025 70.7575L80.5139 99.4924L88.1552 86.14ZM83.0098 87.5397C84.0442 85.7324 86.3478 85.1057 88.1552 86.14L80.5139 99.4924C86.0809 102.678 93.1764 100.748 96.3622 95.181L83.0098 87.5397ZM84.4096 92.6851C82.6022 91.6508 81.9755 89.3471 83.0098 87.5397L96.3622 95.181C99.5481 89.6141 97.6178 82.5186 92.0509 79.3327L84.4096 92.6851ZM34.1982 63.9503L84.4096 92.6851L92.0508 79.3327L41.8395 50.5979L34.1982 63.9503ZM36.9487 49.5935L35.9996 49.8517L40.038 64.6965L40.987 64.4383L36.9487 49.5935ZM39.7571 49.9044C40.7122 49.6368 41.7014 49.768 42.5126 50.1892L35.4231 63.8426C37.9382 65.1486 40.9579 65.5447 43.9077 64.7182L39.7571 49.9044ZM73.7423 40.3821L39.757 49.9045L43.9077 64.7182L77.893 55.1959L73.7423 40.3821ZM71.1289 45.0302C70.567 43.025 71.7371 40.9439 73.7423 40.3821L77.893 55.1959C84.0692 53.4654 87.6732 47.0557 85.9426 40.8795L71.1289 45.0302Z" fill="white" fill-opacity="0.5" mask="url(#path-3-inside-1_149_44)"/>
</g>
</g>
<path d="M67.2884 49.9992C67.2884 59.5577 59.5397 67.3065 49.9811 67.3065C40.4226 67.3065 32.6738 59.5577 32.6738 49.9992C32.6738 40.4406 40.4226 32.6919 49.9811 32.6919C59.5397 32.6919 67.2884 40.4406 67.2884 49.9992Z" fill="white"/>
<path fill-rule="evenodd" clip-rule="evenodd" d="M60.3163 47.7632C61.5617 47.4664 62.8212 48.2757 62.8297 49.5563C62.8681 55.382 59.0019 60.7274 53.1247 62.3056C46.1417 64.1808 38.9641 60.0277 37.093 53.0294C35.2219 46.0311 39.3659 38.8378 46.3489 36.9626C49.4677 36.1251 52.6252 36.49 55.3315 37.7739C55.4076 37.81 55.4335 37.9049 55.392 37.9783V37.9783V37.9783C54.1929 40.0995 51.5151 40.8026 49.0876 40.9917C48.5636 41.0325 48.0359 41.122 47.5099 41.2632C42.8969 42.502 40.1593 47.254 41.3954 51.8771C42.6314 56.5002 47.373 59.2438 51.9861 58.005C55.6157 57.0303 58.0842 53.8807 58.3697 50.3301C58.464 49.1566 59.1715 48.036 60.3163 47.7632V47.7632Z" fill="url(#paint1_linear_149_44)"/>
<rect x="48.8613" y="47.6943" width="13.8039" height="3.8163" rx="1.90815" fill="url(#paint2_linear_149_44)"/>
<defs>
<filter id="filter0_d_149_44" x="5.83693" y="6.10498" width="89.9238" height="98.9604" filterUnits="userSpaceOnUse" color-interpolation-filters="sRGB">
<feFlood flood-opacity="0" result="BackgroundImageFix"/>
<feColorMatrix in="SourceAlpha" type="matrix" values="0 0 0 0 0 0 0 0 0 0 0 0 0 0 0 0 0 0 127 0" result="hardAlpha"/>
<feOffset dy="5.55565"/>
<feGaussianBlur stdDeviation="2.77783"/>
<feComposite in2="hardAlpha" operator="out"/>
<feColorMatrix type="matrix" values="0 0 0 0 0 0 0 0 0 0 0 0 0 0 0 0 0 0 0.25 0"/>
<feBlend mode="normal" in2="BackgroundImageFix" result="effect1_dropShadow_149_44"/>
<feBlend mode="normal" in="SourceGraphic" in2="effect1_dropShadow_149_44" result="shape"/>
</filter>
<linearGradient id="paint0_linear_149_44" x1="17.0588" y1="13.5294" x2="82.7451" y2="87.6471" gradientUnits="userSpaceOnUse">
<stop stop-color="#1BB9CB"/>
<stop offset="1" stop-color="#390AD4"/>
</linearGradient>
<linearGradient id="paint1_linear_149_44" x1="20.7532" y1="27.3674" x2="85.0353" y2="73.0838" gradientUnits="userSpaceOnUse">
<stop stop-color="#1EA6CC"/>
<stop offset="1" stop-color="#390ED4"/>
</linearGradient>
<linearGradient id="paint2_linear_149_44" x1="43.966" y1="45.3805" x2="47.1549" y2="59.5588" gradientUnits="userSpaceOnUse">
<stop stop-color="#1EA6CC"/>
<stop offset="1" stop-color="#390ED4"/>
</linearGradient>
</defs>
</svg>
