<svg width="1250" height="932" viewBox="0 0 1250 932" fill="none" xmlns="http://www.w3.org/2000/svg">
<g clip-path="url(#clip0_183_688)">
<path d="M1197.74 808.539C1199.12 767.426 1180.3 726.575 1143.71 712.567C1152.43 754.584 1145.02 801.851 1123.23 843.347C1114.73 859.509 1103.71 876.831 1106.74 893.317C1108.62 903.575 1115.91 911.523 1124.66 916.563C1133.41 921.604 1143.61 924.109 1153.68 926.565L1155.46 928.316C1177.93 890.795 1196.36 849.652 1197.74 808.539Z" fill="#F2F2F2"/>
<path d="M1143.2 713.336C1161.55 738.971 1170.91 771.841 1168.88 805.647C1168.58 813.131 1167.16 820.528 1164.65 827.587C1161.89 834.667 1157.5 840.999 1151.84 846.07C1146.61 850.947 1140.77 855.404 1136.65 861.313C1134.61 864.196 1133.18 867.461 1132.44 870.911C1131.69 874.361 1131.65 877.926 1132.31 881.393C1133.85 889.609 1138.36 896.36 1143.02 902.776C1148.19 909.899 1153.7 917.199 1154.91 926.547C1155.05 927.68 1156.85 927.136 1156.71 926.005C1154.6 909.741 1140.51 900.285 1135.38 885.582C1132.99 878.721 1132.77 870.8 1137.14 863.674C1140.95 857.444 1146.97 852.843 1152.31 847.945C1157.9 843.052 1162.38 837.018 1165.44 830.248C1168.29 823.295 1169.99 815.929 1170.48 808.434C1171.81 792.264 1170.49 775.987 1166.59 760.238C1162.4 742.902 1154.94 726.525 1144.61 711.99C1143.97 711.105 1142.57 712.457 1143.2 713.336Z" fill="white"/>
<path d="M1170.11 794.612C1176.01 793.249 1181.34 790.083 1185.35 785.552C1189.36 781.022 1191.86 775.354 1192.5 769.336C1192.6 768.166 1190.78 768.225 1190.69 769.396C1190.1 775 1187.77 780.278 1184.03 784.489C1180.29 788.7 1175.32 791.632 1169.82 792.872C1169.7 792.89 1169.59 792.93 1169.49 792.992C1169.39 793.053 1169.31 793.133 1169.24 793.228C1169.17 793.322 1169.12 793.43 1169.1 793.544C1169.07 793.658 1169.07 793.776 1169.08 793.891C1169.1 794.006 1169.15 794.117 1169.21 794.216C1169.27 794.314 1169.35 794.4 1169.45 794.467C1169.54 794.534 1169.65 794.581 1169.77 794.606C1169.88 794.631 1170 794.633 1170.11 794.612Z" fill="white"/>
<path d="M1154.77 843.904C1150.23 840.753 1146.41 836.676 1143.56 831.942C1140.71 827.207 1138.89 821.923 1138.23 816.436C1138.08 815.304 1136.28 815.848 1136.43 816.978C1137.13 822.686 1139.03 828.18 1142.01 833.1C1144.99 838.019 1148.97 842.251 1153.71 845.518C1154.61 846.134 1155.67 844.517 1154.77 843.904Z" fill="white"/>
<path d="M1160.33 744.318C1158.29 745.278 1156.04 745.7 1153.79 745.545C1151.54 745.39 1149.37 744.663 1147.48 743.433C1146.58 742.804 1145.52 744.422 1146.41 745.047C1148.5 746.396 1150.9 747.196 1153.39 747.373C1155.87 747.549 1158.36 747.097 1160.62 746.058C1160.86 745.981 1161.06 745.826 1161.2 745.619C1161.34 745.412 1161.4 745.164 1161.38 744.917C1161.36 744.804 1161.31 744.697 1161.24 744.603C1161.18 744.509 1161.09 744.431 1160.99 744.374C1160.89 744.317 1160.78 744.282 1160.67 744.273C1160.55 744.263 1160.44 744.279 1160.33 744.318Z" fill="white"/>
<path d="M1014.31 783.844C1014.85 784.254 1015.4 784.664 1015.94 785.09C1023.23 790.637 1029.98 796.854 1036.12 803.658C1036.6 804.176 1037.08 804.708 1037.55 805.24C1052.23 822.025 1063.23 841.706 1069.83 863.01C1072.54 871.698 1074.53 880.591 1075.8 889.602C1077.56 902.168 1078.45 916.076 1084.22 926.428C1084.81 927.513 1085.47 928.554 1086.21 929.546L1152.85 930.678C1153.02 930.603 1153.18 930.544 1153.34 930.47L1155.98 930.638C1155.95 930.16 1155.91 929.666 1155.88 929.187C1155.86 928.909 1155.83 928.631 1155.81 928.353C1155.79 928.168 1155.77 927.983 1155.77 927.813C1155.77 927.751 1155.76 927.689 1155.75 927.643C1155.75 927.473 1155.73 927.319 1155.72 927.164C1155.48 924.4 1155.23 921.636 1154.94 918.871C1154.95 918.856 1154.95 918.856 1154.93 918.84C1152.76 897.786 1148.76 876.979 1141.61 857.892C1141.39 857.318 1141.18 856.728 1140.93 856.153C1137.69 847.635 1133.67 839.433 1128.93 831.648C1126.34 827.436 1123.51 823.378 1120.45 819.493C1112.53 809.487 1102.87 800.996 1091.93 794.43C1070.02 781.259 1043.12 775.899 1016.35 783.262C1015.66 783.451 1014.99 783.64 1014.31 783.844Z" fill="#F2F2F2"/>
<path d="M1014.32 784.701C1046.13 791.845 1074.4 809.611 1093.18 834.964C1097.44 840.42 1100.7 846.589 1102.8 853.184C1104.67 860.051 1104.65 867.297 1102.74 874.152C1101.08 880.81 1098.64 887.536 1098.59 894.256C1098.55 897.545 1099.29 900.796 1100.75 903.743C1102.21 906.691 1104.35 909.252 1106.98 911.217C1113.34 916.144 1121.43 918.223 1129.45 919.969C1138.36 921.907 1147.66 923.773 1154.42 929.707C1155.24 930.426 1156.5 928.944 1155.68 928.227C1143.93 917.903 1125.72 919.718 1112.24 912.342C1105.95 908.901 1100.94 903.379 1100.46 895.645C1100.04 888.881 1102.56 881.943 1104.29 875.208C1106.24 868.51 1106.53 861.435 1105.12 854.6C1103.39 847.888 1100.4 841.567 1096.3 835.976C1087.4 823.412 1076.3 812.564 1063.53 803.954C1048.75 793.902 1032.19 786.752 1014.74 782.887C1013.65 782.64 1013.23 784.456 1014.32 784.701Z" fill="white"/>
<path d="M1087.56 826.337C1096.51 817.283 1098.37 803.74 1091.96 794.703C1091.33 793.812 1089.76 794.956 1090.39 795.848C1096.4 804.314 1094.61 816.811 1086.24 825.275C1085.36 826.166 1086.69 827.223 1087.56 826.337Z" fill="white"/>
<path d="M1104.01 870.826C1098.41 871.44 1092.75 870.911 1087.37 869.269C1081.98 867.628 1076.98 864.909 1072.68 861.278C1071.86 860.563 1070.6 862.044 1071.42 862.759C1075.91 866.528 1081.11 869.346 1086.72 871.042C1092.33 872.738 1098.23 873.276 1104.05 872.624C1105.23 872.514 1105.18 870.717 1104.01 870.826Z" fill="white"/>
<path d="M1048.31 796.399C1046.98 798.396 1045.22 800.074 1043.17 801.314C1041.11 802.554 1038.81 803.326 1036.42 803.574C1035.25 803.67 1035.3 805.467 1036.46 805.373C1039.1 805.088 1041.64 804.232 1043.92 802.866C1046.19 801.5 1048.14 799.656 1049.63 797.462C1049.79 797.287 1049.88 797.057 1049.87 796.82C1049.87 796.583 1049.77 796.357 1049.6 796.19C1049.4 796.054 1049.16 795.999 1048.92 796.038C1048.68 796.077 1048.46 796.206 1048.31 796.399Z" fill="white"/>
<path d="M994.487 761.851C994.626 761.693 993.564 761.56 991.596 761.446V695.352H896.184V700.671H853.234C848.198 700.677 843.37 702.681 839.808 706.242C836.247 709.803 834.244 714.631 834.238 719.667V747.004C834.242 752.041 836.244 756.871 839.806 760.432C843.367 763.994 848.197 765.996 853.234 766L897.254 766.058L916.582 766.087H917.912L937.254 766.116L991.278 766.188H995.933C996.612 765.422 993.837 762.617 994.487 761.851Z" fill="#3F3D56"/>
<path d="M995.51 763.078C992.356 767.68 989.799 767.51 987.561 764.533C986.384 762.821 985.436 760.963 984.742 759.005C977.943 741.571 973.495 701.574 960.673 715.56C958.141 718.322 955.57 721.062 952.99 723.771C948.193 728.816 943.184 734.291 938.22 739.128C938.217 739.142 938.332 738.605 938.316 738.617C935.867 741.012 937.712 720.296 936.743 714.468C936.537 713.209 936.201 712.646 935.666 713.149C935.625 712.582 935.598 712.018 935.602 711.445C935.596 710.545 935.642 709.645 935.738 708.75C935.819 707.927 935.93 707.095 936.087 706.256L978.007 482.093C979.112 476.221 982.06 470.854 986.422 466.772C990.785 462.69 996.336 460.105 1002.27 459.392C1005.08 459.08 1007.92 459.18 1010.7 459.689L1018.33 461.116C1021.34 461.679 1024.24 462.738 1026.91 464.25L1026.92 464.253C1032.02 467.127 1036.09 471.523 1038.56 476.825C1041.04 482.126 1041.8 488.069 1040.73 493.822L995.51 763.078Z" fill="#3F3D56"/>
<path d="M637.534 890.766L617.854 881.354L644.888 799.09L673.936 812.982L637.534 890.766Z" fill="#A0616A"/>
<path d="M769.481 877.505C768.05 878.401 766.619 879.283 765.173 880.165C762.296 881.928 759.39 883.663 756.485 885.369C755.025 886.222 753.55 887.075 752.09 887.914V887.957L752.003 887.971L751.974 887.986L749.748 888.535L746.553 880.092L745.079 876.204L742.997 870.696L739.18 860.62L719.086 807.565L750.326 799.859L751.497 804.645H751.512L752.09 807.015L763.005 851.281L765.231 860.331L765.303 860.605L766.648 866.012L767.804 870.696L769.091 875.929L769.481 877.505Z" fill="#A0616A"/>
<path d="M955.842 691.189C953.861 694.369 951.837 697.535 949.799 700.672C946.011 706.512 942.123 712.266 938.133 717.933C938.133 717.947 938.118 717.947 938.104 717.962C935.776 720.118 933.205 721.996 930.442 723.557C930.326 723.643 930.196 723.701 930.08 723.773C928.046 724.898 925.88 725.767 923.633 726.361C922.823 726.563 921.999 726.766 921.19 726.968C918.27 727.662 915.378 728.255 912.502 728.775C907.384 729.686 902.324 730.337 897.293 730.741C896.889 730.785 896.484 730.814 896.079 730.843C875.392 732.36 855.254 729.917 834.235 725.913C823.855 723.947 813.258 721.59 802.286 719.147C798.701 718.338 795.101 717.543 791.458 716.747C791.184 716.69 790.894 716.617 790.605 716.56C785.401 715.417 780.11 714.29 774.689 713.177C767.865 711.775 760.825 710.416 753.51 709.129L754.031 719.436C754.464 727.365 756.112 735.181 758.917 742.61C762.04 751.746 764.512 758.975 759.293 774.024L756.777 781.31C758.081 784.928 758.529 788.799 758.085 792.619C757.641 796.439 756.318 800.104 754.219 803.327L753.713 804.093L774.689 857.162L776.048 860.603H765.307L752.093 860.617H729.701L697.391 795.795L695.844 792.701V792.542L699.183 667.972C699.227 666.873 699.313 665.76 699.458 664.661C700.047 659.666 701.624 654.839 704.099 650.461C706.574 646.082 709.896 642.241 713.871 639.16C717.68 636.183 722.043 633.993 726.706 632.717C731.37 631.442 736.24 631.106 741.034 631.729L752.093 633.161L774.689 636.081L790.605 638.148L790.923 638.192L837.863 644.263L841.232 630.53L841.853 630.298L861.615 623.056L929.965 598.003L930.138 597.945L934.634 596.297L935.169 597.164C935.328 597.425 935.487 597.685 935.632 597.945C940.075 605.911 943.694 614.311 946.431 623.012C951.033 637.227 954.822 651.692 957.779 666.338C957.909 666.974 958.025 667.552 958.126 668.073L958.169 668.232C958.213 668.478 958.241 668.637 958.256 668.68C959.832 675.243 958.733 683.252 955.842 691.189Z" fill="#2F2E41"/>
<path d="M958.724 645.281C958.507 644.356 958.232 643.416 957.943 642.505C955.648 635.607 952.974 628.841 949.934 622.237C946.522 614.72 942.431 606.668 937.56 597.951C935.203 593.729 932.669 589.34 929.956 584.781C928.597 582.497 927.185 580.169 925.72 577.799C925.662 577.689 925.6 577.583 925.532 577.48L925.113 576.787L857.486 585.836L832.303 589.205L830.799 601.753L830.438 604.861C830.423 604.861 830.423 604.861 830.438 604.875L829.426 613.347V613.361L828.081 624.55L827.966 624.536L790.596 619.693L752.084 614.706L731.397 612.031C726.603 611.406 721.732 611.742 717.069 613.017C712.405 614.293 708.042 616.484 704.234 619.462C700.259 622.543 696.938 626.385 694.463 630.763C691.989 635.142 690.41 639.968 689.821 644.963C689.69 645.975 689.604 647.016 689.56 648.042L670.044 694.288C658.366 721.946 650.929 751.207 647.984 781.084L633.672 826.839L635.71 827.027L666.04 829.846L674.049 830.597L691.685 804.851C693.695 801.916 695.603 798.894 697.381 795.801C700.309 790.748 702.911 785.514 705.173 780.13L743.323 689.344C746.273 689.85 749.193 690.332 752.084 690.79C765.456 692.958 778.294 694.727 790.596 696.095C830.597 700.562 865.234 700.909 896.07 697.122C904.729 696.066 913.099 694.678 921.18 692.958C924.144 692.336 927.069 691.667 929.955 690.949C930.635 690.79 931.3 690.631 931.965 690.457C937.939 688.916 943.432 685.902 947.94 681.689C952.448 677.476 955.828 672.2 957.77 666.344C960.088 659.557 960.419 652.249 958.724 645.281Z" fill="#2F2E41"/>
<path d="M643.828 877.334L622.534 867.128L619.194 865.523L613.86 878.62L576.62 886.817C574.779 887.221 573.115 888.203 571.871 889.619C570.628 891.036 569.87 892.813 569.708 894.692C569.547 896.57 569.99 898.45 570.974 900.058C571.957 901.666 573.429 902.918 575.174 903.63L611.561 918.477L623.112 908.083L620.278 922.033L633.983 927.628L649.003 879.82L643.828 877.334Z" fill="#2F2E41"/>
<path d="M774.695 857.162L776.054 860.603H774.695V857.162Z" fill="#2F2E41"/>
<path d="M520.255 606.965C520.255 599.217 517.653 592.928 514.458 592.914H273.774C270.565 592.928 267.977 599.217 267.963 606.965V925.935C267.963 926.655 267.695 927.348 267.212 927.881C266.728 928.414 266.064 928.748 265.348 928.817C263.01 929.042 260.672 929.251 258.335 929.444C258.277 929.444 258.219 929.458 258.161 929.458C256.889 929.574 255.617 929.661 254.345 929.762H254.33C253.676 928.552 253.029 927.332 252.39 926.101C252.174 925.686 252.061 925.225 252.061 924.757V588.736C252.061 586.596 252.147 584.442 252.292 582.317C252.498 579.399 252.86 576.494 253.376 573.614C255.819 560.184 261.342 551.091 267.616 551.062H520.602C521.518 551.069 522.423 551.26 523.262 551.626C524.495 552.172 525.61 552.953 526.544 553.925C527.812 555.243 528.896 556.726 529.768 558.334C532.861 563.784 535.073 571.909 535.854 581.363C535.854 581.45 535.868 581.536 535.868 581.623C536.071 583.965 536.172 586.35 536.157 588.736L536.36 619.716L536.49 638.191L536.88 696.161L537.025 716.747L537.661 928.099C537.661 928.866 537.356 929.602 536.814 930.144C536.272 930.686 535.536 930.991 534.77 930.991H523.147C522.38 930.991 521.644 930.686 521.102 930.144C520.56 929.602 520.255 928.866 520.255 928.099L520.255 606.965Z" fill="#3F3D56"/>
<path d="M348.693 465.12L331.951 538.782L321.253 550.5H313.535L345.345 416.568L346.918 439.321V439.337L348.693 465.12Z" fill="#3F3D56"/>
<path d="M429.264 540.4L331.047 539.778L322.33 539.721L316.114 539.677L308.871 539.634H308.813C307.763 539.636 306.755 540.051 306.009 540.79L293.778 553.02C293.508 553.287 293.287 553.601 293.128 553.946C293.052 554.043 292.989 554.15 292.94 554.264C292.675 554.879 292.566 555.549 292.622 556.216C292.677 556.884 292.896 557.527 293.259 558.09C293.621 558.652 294.117 559.117 294.702 559.443C295.287 559.769 295.943 559.947 296.612 559.959H423.842C424.606 559.957 425.353 559.738 425.998 559.329C426.642 558.92 427.158 558.336 427.486 557.646L428.483 555.478L430.536 551.069L432.863 546.096C433.112 545.567 433.24 544.989 433.239 544.404C433.234 543.349 432.814 542.338 432.07 541.589C431.327 540.84 430.319 540.413 429.264 540.4Z" fill="#3F3D56"/>
<path opacity="0.17" d="M428.482 555.474L427.477 557.65C427.151 558.338 426.636 558.92 425.994 559.329C425.351 559.737 424.606 559.956 423.844 559.96H296.609C295.94 559.948 295.284 559.772 294.699 559.446C294.114 559.12 293.619 558.655 293.257 558.093C292.894 557.53 292.676 556.887 292.621 556.22C292.566 555.553 292.677 554.883 292.942 554.268C292.987 554.153 293.049 554.046 293.126 553.95L428.482 555.474Z" fill="black"/>
<path opacity="0.17" d="M346.918 439.321V439.337L319.679 550.5H313.535L345.345 416.568L346.918 439.321Z" fill="black"/>
<path d="M380.348 459.689L341.792 166.354C341.651 165.255 341.079 164.256 340.202 163.579L313.66 130.358L311.275 128.522C310.391 127.853 309.281 127.557 308.181 127.698L304.191 128.233C303.091 128.375 302.092 128.948 301.414 129.826C300.737 130.705 300.435 131.816 300.577 132.917L340.535 436.848V436.862L342.978 455.453L345.884 477.528V477.557L350.394 511.905C350.466 512.494 350.665 513.06 350.977 513.564C351.289 514.068 351.706 514.499 352.201 514.825C352.687 515.16 353.239 515.387 353.82 515.492C354.401 515.597 354.997 515.577 355.569 515.433L358.099 514.796C359.068 514.547 359.918 513.963 360.499 513.148L361.627 511.544L362.147 510.792L379.61 462.652C380.223 461.794 380.487 460.734 380.348 459.689Z" fill="#3F3D56"/>
<path opacity="0.17" d="M313.649 130.36L362.147 510.799L361.62 511.543L360.496 513.143C359.916 513.96 359.066 514.544 358.096 514.793L355.562 515.43C354.989 515.572 354.392 515.591 353.81 515.487C353.228 515.383 352.675 515.157 352.187 514.824C351.699 514.491 351.286 514.06 350.976 513.557C350.666 513.054 350.466 512.491 350.388 511.905L300.578 132.922C300.434 131.821 300.733 130.708 301.409 129.828C302.085 128.948 303.082 128.372 304.183 128.226L308.183 127.701C308.726 127.627 309.278 127.663 309.807 127.805C310.335 127.947 310.831 128.193 311.264 128.529L313.649 130.36Z" fill="black"/>
<path d="M315.08 141.24L340.817 177.975L371.406 410.725L354.822 443.626L315.08 141.24Z" fill="#1EA6CC"/>
<path d="M868.195 928.57L850.545 928.901L899.601 758.49L917.251 763.942L868.195 928.57Z" fill="#3F3D56"/>
<path d="M983.95 928.894L966.313 928.562L917.913 766.086L917.248 763.947L928.567 760.448C930.808 760.492 933.136 760.521 935.535 760.549L937.256 766.115L983.95 928.894Z" fill="#3F3D56"/>
<path d="M767.272 861.337L744.959 869.068L741.457 870.278L746.882 883.338L726.188 915.365C725.164 916.947 724.672 918.816 724.785 920.697C724.899 922.579 725.611 924.375 726.817 925.823C728.024 927.272 729.662 928.296 731.493 928.747C733.323 929.197 735.25 929.051 736.991 928.329L773.293 913.276L774.187 897.763L781.989 909.67L795.664 904.002L772.699 859.463L767.272 861.337Z" fill="#2F2E41"/>
<path d="M631.849 383.015C632.906 385.076 634.403 386.88 636.234 388.3C638.065 389.72 640.184 390.722 642.444 391.234C644.703 391.746 647.047 391.757 649.311 391.265C651.575 390.773 653.704 389.791 655.547 388.387L702.466 419.534L702.555 390.269L657.987 365.179C655.424 362.238 651.871 360.34 648.002 359.844C644.134 359.348 640.217 360.289 636.995 362.487C633.773 364.686 631.47 367.99 630.521 371.773C629.573 375.557 630.045 379.557 631.849 383.015Z" fill="#A0616A"/>
<path d="M666.902 396.542L688.793 371.639L777.925 424.553L896.079 413.732C901.919 413.198 907.806 413.955 913.32 415.951C918.835 417.947 923.842 421.133 927.987 425.282C932.132 429.431 935.313 434.442 937.304 439.958C939.295 445.475 940.046 451.362 939.506 457.202C938.518 467.749 933.387 477.473 925.238 484.241C917.089 491.009 906.588 494.268 896.04 493.303L762.969 480.986L666.902 396.542Z" fill="#E6E6E6"/>
<path d="M941.132 396.926L940.927 396.668L885.081 391.158L847.35 457.622C814.915 497.274 838.484 524.619 839.895 528.686L828.637 580.595L831.16 597.967L832.42 603.128L960.932 670.278L934.518 582.283L960.309 502.037C966.027 484.294 967.268 465.412 963.922 447.073C960.577 428.734 952.747 411.507 941.132 396.926Z" fill="#E6E6E6"/>
<path d="M1002.32 338.438C1002.35 339.147 1002.37 339.855 1002.37 340.549C1002.35 348.205 1000.53 355.75 997.044 362.567C993.557 369.384 988.508 375.279 982.307 379.771C976.107 384.263 968.931 387.224 961.367 388.412C953.804 389.6 946.066 388.981 938.787 386.607L929.867 383.701C929.795 383.672 929.708 383.658 929.636 383.629L914.934 378.829C914.886 378.208 914.895 377.584 914.963 376.965C893.033 367.597 923.348 336.819 930.879 313.703C932.05 310.104 891.789 312.793 893.698 309.713C893.278 309.497 892.859 309.28 892.469 309.063C899.27 298.33 909.323 290.053 921.162 285.439C933.001 280.825 946.004 280.117 958.274 283.417C958.592 283.49 958.925 283.591 959.243 283.678C987.809 284.386 1002.81 304.292 1002.81 330.14C1002.81 332.914 1002.65 335.684 1002.32 338.438Z" fill="#2F2E41"/>
<path d="M977.57 348.616C973.737 360.354 965.4 370.09 954.391 375.682C943.382 381.275 930.603 382.267 918.863 378.44C917.533 378.006 916.232 377.514 914.959 376.965C904.275 372.386 895.691 363.975 890.894 353.386C886.098 342.798 885.436 330.798 889.039 319.747C890.182 316.228 891.745 312.859 893.694 309.714C899.679 300.021 909.01 292.86 919.92 289.584C930.831 286.308 942.563 287.146 952.897 291.939C963.231 296.732 971.45 305.148 975.996 315.592C980.543 326.037 981.103 337.786 977.57 348.616Z" fill="#A0616A"/>
<path d="M929.866 383.702C929.794 383.673 929.707 383.659 929.635 383.63L914.933 378.83C914.885 378.209 914.894 377.585 914.962 376.965C915.399 372.125 918.797 367.055 923.358 361.583C926.295 358.083 928.337 353.922 929.307 349.457C930.278 344.992 930.148 340.359 928.929 335.956C927.71 331.552 925.438 327.512 922.31 324.182C919.181 320.852 915.29 318.333 910.972 316.842C910.846 316.798 910.721 316.755 910.596 316.711C904.806 314.777 899.159 312.439 893.696 309.714C893.277 309.497 892.858 309.28 892.468 309.064C888.796 307.04 886.136 305.016 884.965 303.079C886.715 297.708 889.507 292.736 893.179 288.444C896.852 284.153 901.334 280.628 906.37 278.069C911.406 275.51 916.896 273.968 922.527 273.532C928.159 273.095 933.821 273.773 939.191 275.525L947.72 278.3C958.477 281.796 967.415 289.404 972.585 299.465C978.599 303.773 983.341 310.105 987.056 317.578C1005.73 355.078 969.679 396.482 929.866 383.702Z" fill="#2F2E41"/>
<path d="M958.013 610.493C958.013 613.036 957.242 615.519 955.802 617.615C954.362 619.71 952.32 621.32 949.947 622.232C948.82 622.664 947.637 622.927 946.434 623.013C946.116 623.042 945.783 623.056 945.465 623.056H921.193V740.818C920.831 741.295 920.455 741.772 920.08 742.249C917.998 744.909 915.887 747.569 913.748 750.185C913.285 750.764 912.822 751.328 912.374 751.891C911.666 752.744 910.972 753.597 910.278 754.436C910.032 754.725 909.801 754.999 909.57 755.289C908.384 756.705 907.199 758.122 905.985 759.539V759.553C905.97 759.568 905.97 759.568 905.97 759.582L905.363 760.276C904.394 761.418 903.426 762.575 902.428 763.717C901.073 762.964 899.876 761.958 898.901 760.753C898.296 760.028 897.782 759.232 897.369 758.382C897.354 758.368 897.354 758.353 897.34 758.324C897.323 758.292 897.308 758.258 897.296 758.223C896.485 756.532 896.07 754.678 896.082 752.802V623.056H841.668C840.062 623.066 838.47 622.756 836.984 622.145C835.111 621.398 833.446 620.208 832.132 618.677C830.818 617.147 829.894 615.321 829.438 613.356V613.341C828.76 610.487 829.119 607.484 830.45 604.87C830.436 604.855 830.436 604.855 830.45 604.855C831.012 603.714 831.759 602.673 832.662 601.776V601.762C832.662 601.747 832.662 601.747 832.676 601.733C833.848 600.535 835.246 599.583 836.79 598.932C838.334 598.282 839.993 597.946 841.668 597.945H945.465C948.793 597.947 951.983 599.27 954.336 601.623C956.689 603.975 958.011 607.166 958.013 610.493Z" fill="#3F3D56"/>
<path d="M1027.12 367.44C1022.05 366.491 1016.83 366.551 1011.77 367.617C1006.72 368.683 1001.92 370.734 997.661 373.653C993.398 376.573 989.752 380.303 986.931 384.632C984.111 388.96 982.17 393.802 981.22 398.881C979.544 407.852 981.038 417.127 985.447 425.118C989.856 433.108 996.906 439.318 1005.39 442.684L993.561 505.934L1018.25 510.55L1044.4 370.672L1027.12 367.44Z" fill="#3F3D56"/>
<path d="M991.59 320.932C1002.77 320.932 1011.83 311.871 1011.83 300.694C1011.83 289.516 1002.77 280.455 991.59 280.455C980.413 280.455 971.352 289.516 971.352 300.694C971.352 311.871 980.413 320.932 991.59 320.932Z" fill="#2F2E41"/>
<path d="M1227.53 358.805C1218.75 361.735 1209.36 362.234 1200.1 362.394C1173.17 362.86 1145.55 360.5 1121.04 349.332C1096.53 338.164 1075.43 316.94 1069.98 290.561C1067.63 279.191 1067.9 266.527 1060.74 257.392C1052.24 246.55 1035.15 245.072 1023.24 252.012C1011.34 258.952 1004.39 272.456 1002.37 286.086L997.574 293.881C997.686 298.9 1003.12 302.238 1008.12 302.709C1013.11 303.179 1018.14 301.802 1023.15 302.175C1034.12 302.991 1043.06 312.375 1046.26 322.902C1049.46 333.428 1047.92 344.815 1045.18 355.471C1042.44 366.126 1038.53 376.521 1036.97 387.412C1035.41 398.302 1036.47 410.121 1042.88 419.064C1047.69 425.776 1055.02 430.227 1062.47 433.786C1080.5 442.404 1100.26 446.817 1120.25 446.694C1140.24 446.571 1159.95 441.914 1177.88 433.075C1195.81 424.236 1211.5 411.444 1223.77 395.662C1236.04 379.881 1244.58 361.521 1248.72 341.965C1244.53 350.218 1236.31 355.876 1227.53 358.805Z" fill="#2F2E41"/>
<path d="M838.95 786.775H797.728C795.461 786.774 793.27 785.954 791.558 784.467C789.847 782.98 788.729 780.925 788.411 778.68C785.866 759.95 785.866 740.962 788.411 722.232C788.726 720.014 789.82 717.981 791.499 716.498C793.178 715.014 795.33 714.178 797.57 714.138C810.54 708.325 824.507 708.325 839.092 714.138C840.45 714.156 841.788 714.471 843.011 715.061C844.235 715.651 845.315 716.502 846.174 717.553C847.071 718.648 847.712 719.928 848.052 721.301C848.392 722.674 848.422 724.105 848.14 725.491C844.828 741.97 844.828 758.943 848.14 775.421C848.422 776.807 848.392 778.239 848.052 779.612C847.712 780.985 847.071 782.265 846.174 783.359C845.3 784.429 844.197 785.291 842.947 785.882C841.698 786.473 840.332 786.778 838.95 786.775Z" fill="#1EA6CC"/>
<path d="M834.633 735.661H799.938C799.363 735.661 798.811 735.432 798.405 735.026C797.998 734.619 797.77 734.067 797.77 733.492C797.77 732.917 797.998 732.366 798.405 731.959C798.811 731.552 799.363 731.324 799.938 731.324H834.633C835.208 731.324 835.76 731.552 836.167 731.959C836.573 732.366 836.802 732.917 836.802 733.492C836.802 734.067 836.573 734.619 836.167 735.026C835.76 735.432 835.208 735.661 834.633 735.661Z" fill="white"/>
<path d="M834.633 753.007H799.938C799.363 753.007 798.811 752.779 798.405 752.372C797.998 751.966 797.77 751.414 797.77 750.839C797.77 750.264 797.998 749.712 798.405 749.306C798.811 748.899 799.363 748.67 799.938 748.67H834.633C835.208 748.67 835.76 748.899 836.167 749.306C836.573 749.712 836.802 750.264 836.802 750.839C836.802 751.414 836.573 751.966 836.167 752.372C835.76 752.779 835.208 753.007 834.633 753.007Z" fill="white"/>
<path d="M834.633 770.355H799.938C799.363 770.355 798.811 770.127 798.405 769.72C797.998 769.314 797.77 768.762 797.77 768.187C797.77 767.612 797.998 767.06 798.405 766.654C798.811 766.247 799.363 766.019 799.938 766.019H834.633C835.208 766.019 835.76 766.247 836.167 766.654C836.573 767.06 836.802 767.612 836.802 768.187C836.802 768.762 836.573 769.314 836.167 769.72C835.76 770.127 835.208 770.355 834.633 770.355Z" fill="white"/>
<path d="M346.369 327.291V327.287C346.413 326.935 346.592 326.615 346.869 326.394C347.146 326.172 347.499 326.068 347.851 326.103L570.886 326.697C571.238 326.664 571.589 326.77 571.864 326.992C572.138 327.214 572.316 327.535 572.358 327.885V327.889C572.314 328.241 572.135 328.562 571.858 328.783C571.581 329.004 571.229 329.109 570.876 329.074L347.841 328.48C347.489 328.512 347.139 328.407 346.864 328.185C346.589 327.963 346.411 327.642 346.369 327.291Z" fill="#3F3D56"/>
<path d="M405.348 464.657L395.877 475.073C395.438 475.443 394.902 475.678 394.333 475.752C393.764 475.826 393.186 475.734 392.667 475.489C391.097 474.933 389.699 473.976 388.614 472.711C381.846 465.03 374.248 458.122 365.959 452.113C364.597 451.153 363.511 449.853 362.808 448.342C362.523 447.856 362.379 447.3 362.391 446.737C362.404 446.173 362.573 445.624 362.879 445.151C362.974 439.452 366.184 435.922 372.422 434.655C373.516 433.516 375.987 433.949 378.202 435.677C387.312 442.785 395.874 450.569 403.814 458.963C405.764 461.026 406.424 463.473 405.348 464.657Z" fill="#1EA6CC"/>
<path d="M381.015 442.236L373.044 451.003C372.769 451.306 372.106 451.151 371.562 450.657C371.018 450.163 370.801 449.517 371.076 449.214L379.047 440.447C379.322 440.144 379.986 440.3 380.529 440.794C381.073 441.288 381.29 441.934 381.015 442.236Z" fill="white"/>
<path d="M388.878 449.393L380.907 458.16C380.632 458.462 379.969 458.307 379.425 457.813C378.882 457.319 378.664 456.673 378.94 456.37L386.91 447.603C387.186 447.301 387.849 447.456 388.392 447.95C388.936 448.444 389.153 449.09 388.878 449.393Z" fill="white"/>
<path d="M396.751 456.549L388.78 465.316C388.505 465.618 387.842 465.463 387.298 464.969C386.755 464.475 386.537 463.829 386.813 463.527L394.783 454.76C395.059 454.457 395.722 454.612 396.266 455.106C396.809 455.6 397.026 456.246 396.751 456.549Z" fill="white"/>
<path d="M1250 929.729C1250 929.955 1249.96 930.179 1249.87 930.388C1249.78 930.597 1249.66 930.787 1249.5 930.947C1249.34 931.107 1249.15 931.234 1248.94 931.32C1248.73 931.406 1248.51 931.45 1248.28 931.449H1.72031C1.26406 931.449 0.826485 931.268 0.503865 930.946C0.181244 930.623 0 930.185 0 929.729C0 929.273 0.181244 928.835 0.503865 928.513C0.826485 928.19 1.26406 928.009 1.72031 928.009H1248.28C1248.51 928.008 1248.73 928.052 1248.94 928.138C1249.15 928.225 1249.34 928.351 1249.5 928.511C1249.66 928.671 1249.78 928.861 1249.87 929.07C1249.96 929.279 1250 929.503 1250 929.729Z" fill="#CCCCCC"/>
<path d="M851.03 734.083C853.025 732.904 854.737 731.303 856.046 729.391C857.355 727.48 858.228 725.304 858.606 723.019C858.983 720.733 858.854 718.392 858.229 716.161C857.604 713.93 856.497 711.864 854.987 710.107L883.295 661.423L854.077 663.07L831.674 709.048C828.891 711.781 827.207 715.44 826.941 719.332C826.676 723.223 827.847 727.077 830.232 730.163C832.618 733.249 836.053 735.352 839.887 736.075C843.72 736.797 847.685 736.088 851.03 734.083Z" fill="#A0616A"/>
<path d="M862.451 698.291L836.293 677.916L883.826 585.802L866.015 468.498C865.135 462.7 865.542 456.779 867.207 451.156C868.873 445.532 871.756 440.344 875.651 435.961C879.547 431.577 884.36 428.104 889.749 425.79C895.138 423.475 900.97 422.376 906.832 422.569C917.418 422.929 927.43 427.474 934.669 435.207C941.909 442.94 945.785 453.229 945.448 463.817L941.047 597.383L862.451 698.291Z" fill="#E6E6E6"/>
<path d="M635.6 408.042H547.271C544.903 408.039 542.634 407.098 540.96 405.424C539.286 403.75 538.344 401.48 538.342 399.113V282.155C538.344 279.788 539.286 277.519 540.96 275.845C542.634 274.171 544.903 273.229 547.271 273.227H635.6C637.967 273.229 640.236 274.171 641.91 275.845C643.584 277.519 644.526 279.788 644.528 282.155V399.113C644.526 401.48 643.584 403.75 641.91 405.424C640.236 407.098 637.967 408.039 635.6 408.042Z" fill="#E6E6E6"/>
<path d="M629.388 400.6H553.477C551.375 400.598 549.36 399.762 547.873 398.276C546.387 396.789 545.551 394.774 545.549 392.672V288.596C545.551 286.494 546.387 284.479 547.873 282.993C549.36 281.506 551.375 280.67 553.477 280.668H629.388C631.49 280.67 633.505 281.506 634.991 282.993C636.477 284.479 637.313 286.494 637.316 288.596V392.672C637.313 394.774 636.477 396.789 634.991 398.276C633.505 399.762 631.49 400.598 629.388 400.6Z" fill="white"/>
<path d="M621.82 300.445H561.054C560.793 300.446 560.535 300.395 560.294 300.296C560.053 300.197 559.833 300.051 559.649 299.867C559.464 299.683 559.318 299.464 559.218 299.223C559.118 298.983 559.066 298.724 559.066 298.464C559.066 298.203 559.118 297.945 559.218 297.704C559.318 297.463 559.464 297.245 559.649 297.06C559.833 296.876 560.053 296.731 560.294 296.631C560.535 296.532 560.793 296.481 561.054 296.482H621.82C622.08 296.481 622.339 296.532 622.58 296.631C622.821 296.731 623.04 296.876 623.225 297.06C623.409 297.245 623.556 297.463 623.655 297.704C623.755 297.945 623.807 298.203 623.807 298.464C623.807 298.724 623.755 298.983 623.655 299.223C623.556 299.464 623.409 299.683 623.225 299.867C623.04 300.051 622.821 300.197 622.58 300.296C622.339 300.395 622.08 300.446 621.82 300.445Z" fill="#1EA6CC"/>
<path d="M621.814 308.276H561.048C560.523 308.276 560.019 308.067 559.647 307.696C559.275 307.324 559.066 306.82 559.066 306.294C559.066 305.769 559.275 305.265 559.647 304.893C560.019 304.521 560.523 304.313 561.048 304.312H621.814C622.075 304.312 622.332 304.364 622.573 304.463C622.813 304.563 623.032 304.709 623.216 304.893C623.4 305.077 623.546 305.296 623.645 305.536C623.745 305.776 623.796 306.034 623.796 306.294C623.796 306.555 623.745 306.812 623.645 307.053C623.546 307.293 623.4 307.512 623.216 307.696C623.032 307.88 622.813 308.026 622.573 308.125C622.332 308.225 622.075 308.276 621.814 308.276Z" fill="#1EA6CC"/>
<path d="M587.389 316.107H561.048C560.523 316.107 560.019 315.899 559.647 315.527C559.275 315.155 559.066 314.651 559.066 314.125C559.066 313.6 559.275 313.096 559.647 312.724C560.019 312.352 560.523 312.144 561.048 312.144H587.389C587.915 312.144 588.419 312.352 588.79 312.724C589.162 313.096 589.371 313.6 589.371 314.125C589.371 314.651 589.162 315.155 588.79 315.527C588.419 315.899 587.915 316.107 587.389 316.107Z" fill="#1EA6CC"/>
<path d="M621.82 332.509H561.054C560.793 332.51 560.535 332.459 560.294 332.36C560.053 332.26 559.833 332.115 559.649 331.93C559.464 331.746 559.318 331.528 559.218 331.287C559.118 331.046 559.066 330.788 559.066 330.527C559.066 330.267 559.118 330.008 559.218 329.768C559.318 329.527 559.464 329.308 559.649 329.124C559.833 328.94 560.053 328.794 560.294 328.695C560.535 328.595 560.793 328.545 561.054 328.545H621.82C622.08 328.545 622.339 328.595 622.58 328.695C622.821 328.794 623.04 328.94 623.225 329.124C623.409 329.308 623.556 329.527 623.655 329.768C623.755 330.008 623.807 330.267 623.807 330.527C623.807 330.788 623.755 331.046 623.655 331.287C623.556 331.528 623.409 331.746 623.225 331.93C623.04 332.115 622.821 332.26 622.58 332.36C622.339 332.459 622.08 332.51 621.82 332.509Z" fill="#E4E4E4"/>
<path d="M621.82 340.34H561.054C560.793 340.341 560.535 340.29 560.294 340.191C560.053 340.092 559.833 339.946 559.649 339.762C559.464 339.578 559.318 339.359 559.218 339.118C559.118 338.877 559.066 338.619 559.066 338.358C559.066 338.098 559.118 337.839 559.218 337.599C559.318 337.358 559.464 337.139 559.649 336.955C559.833 336.771 560.053 336.625 560.294 336.526C560.535 336.426 560.793 336.376 561.054 336.376H621.82C622.081 336.376 622.339 336.426 622.58 336.526C622.821 336.625 623.04 336.771 623.225 336.955C623.409 337.139 623.556 337.358 623.656 337.599C623.756 337.839 623.807 338.098 623.807 338.358C623.807 338.619 623.756 338.877 623.656 339.118C623.556 339.359 623.409 339.578 623.225 339.762C623.04 339.946 622.821 340.092 622.58 340.191C622.339 340.29 622.081 340.341 621.82 340.34Z" fill="#E4E4E4"/>
<path d="M587.389 348.171H561.048C560.523 348.171 560.019 347.962 559.647 347.59C559.275 347.219 559.066 346.715 559.066 346.189C559.066 345.663 559.275 345.159 559.647 344.787C560.019 344.416 560.523 344.207 561.048 344.207H587.389C587.915 344.207 588.419 344.416 588.79 344.787C589.162 345.159 589.371 345.663 589.371 346.189C589.371 346.715 589.162 347.219 588.79 347.59C588.419 347.962 587.915 348.171 587.389 348.171Z" fill="#E4E4E4"/>
<path d="M621.814 364.573H561.048C560.523 364.573 560.019 364.364 559.647 363.993C559.275 363.621 559.066 363.117 559.066 362.591C559.066 362.066 559.275 361.561 559.647 361.19C560.019 360.818 560.523 360.609 561.048 360.609H621.814C622.34 360.609 622.844 360.818 623.216 361.19C623.587 361.561 623.796 362.066 623.796 362.591C623.796 363.117 623.587 363.621 623.216 363.993C622.844 364.364 622.34 364.573 621.814 364.573Z" fill="#E4E4E4"/>
<path d="M621.814 372.404H561.048C560.523 372.404 560.019 372.195 559.647 371.823C559.275 371.452 559.066 370.947 559.066 370.422C559.066 369.896 559.275 369.392 559.647 369.02C560.019 368.649 560.523 368.44 561.048 368.44H621.814C622.34 368.44 622.844 368.649 623.216 369.02C623.587 369.392 623.796 369.896 623.796 370.422C623.796 370.947 623.587 371.452 623.216 371.823C622.844 372.195 622.34 372.404 621.814 372.404Z" fill="#E4E4E4"/>
<path d="M587.389 380.234H561.048C560.523 380.234 560.019 380.025 559.647 379.654C559.275 379.282 559.066 378.778 559.066 378.252C559.066 377.727 559.275 377.223 559.647 376.851C560.019 376.479 560.523 376.271 561.048 376.271H587.389C587.915 376.271 588.419 376.479 588.79 376.851C589.162 377.223 589.371 377.727 589.371 378.252C589.371 378.778 589.162 379.282 588.79 379.654C588.419 380.025 587.915 380.234 587.389 380.234Z" fill="#E4E4E4"/>
<path d="M335.021 252.204L571.983 49.521H572.359V52.4961H573.082L336.957 254.465L335.021 252.204Z" fill="#2F2E41"/>
<path d="M498.622 484.969H389.667C387.964 484.971 386.332 485.648 385.129 486.851C383.925 488.055 383.248 489.687 383.246 491.389V559.224C383.248 560.926 383.925 562.558 385.129 563.762C386.332 564.966 387.964 565.643 389.667 565.645H498.621C500.324 565.643 501.956 564.966 503.159 563.762C504.363 562.558 505.04 560.926 505.042 559.224V491.389C505.04 489.687 504.363 488.055 503.159 486.851C501.956 485.648 500.324 484.971 498.622 484.969Z" fill="white"/>
<path d="M498.622 484.969H389.667C387.964 484.971 386.332 485.648 385.129 486.851C383.925 488.055 383.248 489.687 383.246 491.389V559.224C383.248 560.926 383.925 562.558 385.129 563.762C386.332 564.966 387.964 565.643 389.667 565.645H498.621C500.324 565.643 501.956 564.966 503.159 563.762C504.363 562.558 505.04 560.926 505.042 559.224V491.389C505.04 489.687 504.363 488.055 503.159 486.851C501.956 485.648 500.324 484.971 498.622 484.969ZM500.729 533.695C500.703 540.601 497.971 547.222 493.12 552.137C488.268 557.052 481.684 559.87 474.779 559.986C463.723 560.13 480.896 560.186 467.562 560.186C437.072 560.186 405.28 559.895 393.418 559.706C391.857 559.674 390.371 559.033 389.276 557.92C388.182 556.807 387.566 555.31 387.56 553.749V491.394C387.56 490.835 387.782 490.299 388.177 489.904C388.572 489.508 389.107 489.285 389.666 489.283H498.617C499.176 489.283 499.712 489.505 500.108 489.9C500.503 490.295 500.727 490.83 500.729 491.389V533.695Z" fill="#CACACA"/>
<path d="M484.251 528.264H401.239C400.504 528.263 399.788 528.035 399.188 527.612C398.587 527.188 398.132 526.59 397.885 525.899L385.064 489.93C384.873 489.393 384.813 488.818 384.89 488.253C384.967 487.688 385.179 487.15 385.507 486.684C385.835 486.218 386.27 485.838 386.776 485.575C387.281 485.312 387.843 485.174 388.413 485.174L499.746 484.976H499.751C500.34 484.976 500.92 485.122 501.439 485.402C501.957 485.681 502.399 486.085 502.723 486.577C503.047 487.068 503.245 487.633 503.297 488.22C503.349 488.807 503.255 489.398 503.023 489.939L487.523 526.106C487.249 526.747 486.793 527.293 486.211 527.676C485.629 528.06 484.948 528.264 484.251 528.264Z" fill="#CACACA"/>
<path d="M444.085 537.134C448.984 537.134 452.955 533.163 452.955 528.264C452.955 523.365 448.984 519.394 444.085 519.394C439.186 519.394 435.215 523.365 435.215 528.264C435.215 533.163 439.186 537.134 444.085 537.134Z" fill="#3F3D56"/>
<path d="M205.476 885.322C203.741 898.102 195.053 909.638 183.878 917.17C181.216 918.97 178.406 920.541 175.479 921.868C172.261 923.321 168.942 924.538 165.547 925.511C150.657 929.863 134.567 930.051 118.911 930.137C103.081 930.238 87.2565 930.34 71.4364 930.441C58.9605 930.513 46.0799 930.513 34.5582 925.728C34.3859 925.665 34.217 925.592 34.0522 925.511C22.7328 920.625 13.0904 909.884 13.3651 897.596C13.4755 893.267 14.7004 889.04 16.9214 885.322C18.3915 882.825 20.1584 880.514 22.1835 878.441C28.4576 871.936 37.1603 866.833 45.3137 862.727C58.7581 855.976 73.9518 847.215 77.8839 833.337C78.2989 831.877 78.5796 830.382 78.7224 828.87C79.6476 819.329 75.0071 810.554 69.0945 802.704C68.5162 801.924 67.909 801.143 67.2874 800.362C65.9574 798.7 64.584 797.066 63.2251 795.505C62.6469 794.84 62.0686 794.16 61.4759 793.481C56.0114 787.149 50.5035 780.384 47.6267 772.823C46.3882 769.657 45.6989 766.303 45.5884 762.906C45.2703 750.632 58.9894 738.272 69.3691 744.069C74.4578 743.578 79.5464 743.072 84.6351 742.551C90.8802 741.93 97.0965 741.308 103.327 740.672H103.342C104.744 740.556 106.117 740.412 107.491 740.267C120.458 738.98 133.416 737.684 146.364 736.378C152.117 735.815 158.883 735.598 162.627 740.021C166.704 744.85 164.593 752.483 160.56 757.355C156.527 762.212 150.932 765.653 147.144 770.683C142.244 777.189 141.102 785.414 142.504 793.481C142.91 795.823 143.52 798.126 144.325 800.362C145.741 804.357 147.701 808.137 150.151 811.595C158.652 823.507 171.243 831.718 182.418 841.158C193.607 850.613 204.074 862.611 205.606 877.155C205.649 877.574 205.693 878.008 205.707 878.441C205.87 880.737 205.792 883.043 205.476 885.322Z" fill="#E6E6E6"/>
<path d="M114.559 752.953C103.279 741.81 93.6702 729.092 86.0326 715.196C78.418 701.372 72.7937 686.541 69.3265 671.144C65.8113 655.517 64.647 639.454 65.8722 623.484C68.4127 590.959 80.4311 559.892 100.441 534.125C101.663 532.558 102.914 531.015 104.194 529.495C105.622 527.795 108.047 530.243 106.63 531.93C86.2107 556.414 73.418 586.348 69.835 618.027C67.2434 642.235 70.1371 666.716 78.3012 689.652C86.4653 712.589 99.6902 733.392 116.994 750.518C118.575 752.077 116.139 754.512 114.559 752.953Z" fill="#E6E6E6"/>
<path d="M99.0508 537.049C100.445 536.528 101.811 535.932 103.141 535.265C103.209 535.368 103.274 535.474 103.342 535.577L99.0508 537.049Z" fill="#E6E6E6"/>
<path d="M125.639 506.667C125.076 509.823 124.058 512.881 122.618 515.745C118.642 523.73 112.309 530.301 104.475 534.568C104.042 534.799 103.593 535.045 103.145 535.262C102.61 534.423 102.061 533.585 101.541 532.746C97.8507 527.253 95.1229 521.171 93.4739 514.762C91.7969 507.231 92.7077 498.774 97.5361 492.745C102.35 486.717 111.544 484.014 118.209 487.917C120.133 489.066 121.766 490.644 122.979 492.528C122.314 493.353 121.649 494.162 120.984 494.986C120.926 495.062 120.863 495.134 120.796 495.203C120.218 495.926 119.625 496.634 119.047 497.357C116.633 500.32 114.233 503.298 111.819 506.248C115.222 506.873 118.685 507.111 122.141 506.956C122.416 506.942 122.705 506.927 122.979 506.913C123.861 506.855 124.758 506.783 125.639 506.667Z" fill="#E6E6E6"/>
<path d="M76.8806 565.953L75.9554 578.01L75.7097 581.277C75.4495 581.147 75.1748 581.017 74.9146 580.887C65.9226 576.423 57.9866 570.092 51.637 562.317C45.2874 554.541 40.6703 545.5 38.0942 535.797C37.2329 532.432 36.6288 529.005 36.2871 525.548C40.971 524.825 45.6693 524.088 50.3532 523.365C46.5611 518.432 41.811 514.316 36.3883 511.265C37.6248 499.2 41.9846 487.665 49.0376 477.798C50.252 498.008 71.4161 510.86 79.1647 529.552C81.5419 535.402 82.571 541.712 82.1756 548.013C81.7802 554.315 79.9704 560.447 76.8806 565.953Z" fill="#E6E6E6"/>
<path d="M72.8639 671.846C71.7363 671.904 70.6087 671.932 69.4956 671.918C59.8752 671.857 50.3686 669.832 41.5587 665.966C32.7488 662.101 24.8213 656.476 18.2622 649.438C12.9526 643.624 8.68352 636.939 5.64178 629.676C5.74297 629.662 5.82971 629.648 5.9309 629.633C10.6148 628.91 15.3131 628.173 19.997 627.45C15.0224 620.968 8.41079 615.928 0.84227 612.849C-0.181317 606.317 -0.259222 599.671 0.610963 593.116C11.193 610.363 35.9279 611.751 51.5553 624.588C59.0081 630.8 64.0888 639.394 65.9394 648.918C66.4006 651.271 66.6474 653.661 66.6766 656.059C66.6911 656.638 66.6911 657.201 66.6766 657.765L67.0236 658.546L72.8639 671.846Z" fill="#E6E6E6"/>
<path d="M119.351 691.811C116.358 695.482 113.366 699.183 110.373 702.855C114.052 703.532 117.8 703.755 121.533 703.52C118.218 715.394 111.854 726.194 103.073 734.847C102.249 735.657 101.396 736.452 100.528 737.204C100.355 737.363 100.167 737.522 99.9935 737.681L99.2128 735.469L99.1983 735.454L94.7747 723.21C89.1623 717.567 85.2757 710.441 83.571 702.667V702.638C82.5342 698.088 82.2945 693.392 82.8627 688.76C85.3347 668.68 102.306 650.624 98.0852 630.833C107.386 638.366 114.603 648.156 119.047 659.269C116.633 662.233 114.233 665.211 111.819 668.16C115.222 668.786 118.684 669.023 122.141 668.868C123.351 673.762 124.011 678.776 124.107 683.816C124.121 684.539 124.121 685.247 124.107 685.97C122.589 687.849 121.056 689.714 119.538 691.594C119.48 691.669 119.417 691.742 119.351 691.811Z" fill="#E6E6E6"/>
<path d="M648.61 98.6745H560.28C557.913 98.6718 555.644 97.7302 553.97 96.0563C552.296 94.3825 551.354 92.113 551.352 89.7458V8.92872C551.354 6.5615 552.296 4.292 553.97 2.61812C555.644 0.944244 557.913 0.00268603 560.28 0H648.61C650.977 0.00267455 653.246 0.944242 654.92 2.61812C656.594 4.292 657.536 6.56149 657.538 8.92872V89.7458C657.536 92.113 656.594 94.3825 654.92 96.0564C653.246 97.7302 650.977 98.6718 648.61 98.6745Z" fill="#E6E6E6"/>
<path d="M642.398 91.2326H566.486C564.384 91.2303 562.369 90.3942 560.883 88.908C559.397 87.4218 558.561 85.4067 558.559 83.3049V15.3691C558.561 13.2673 559.397 11.2522 560.883 9.766C562.369 8.27978 564.384 7.44379 566.486 7.44141H642.398C644.5 7.44378 646.515 8.27977 648.001 9.766C649.487 11.2522 650.323 13.2673 650.326 15.3691V83.3049C650.323 85.4067 649.487 87.4218 648.001 88.908C646.515 90.3943 644.5 91.2303 642.398 91.2326Z" fill="white"/>
<path d="M634.831 27.2199H574.065C573.805 27.2206 573.546 27.1699 573.305 27.0706C573.064 26.9713 572.845 26.8255 572.66 26.6414C572.476 26.4573 572.329 26.2386 572.23 25.9978C572.13 25.757 572.078 25.4988 572.078 25.2381C572.078 24.9774 572.13 24.7193 572.23 24.4785C572.329 24.2377 572.476 24.019 572.66 23.8349C572.845 23.6508 573.064 23.5049 573.305 23.4057C573.546 23.3064 573.805 23.2557 574.065 23.2564H634.831C635.092 23.2557 635.35 23.3064 635.592 23.4057C635.833 23.5049 636.052 23.6508 636.236 23.8349C636.421 24.019 636.567 24.2377 636.667 24.4785C636.767 24.7193 636.819 24.9774 636.819 25.2381C636.819 25.4988 636.767 25.757 636.667 25.9978C636.567 26.2386 636.421 26.4573 636.236 26.6414C636.052 26.8255 635.833 26.9713 635.592 27.0706C635.35 27.1699 635.092 27.2206 634.831 27.2199Z" fill="#1EA6CC"/>
<path d="M634.826 35.0521H574.06C573.534 35.0521 573.03 34.8433 572.659 34.4717C572.287 34.1 572.078 33.5959 572.078 33.0703C572.078 32.5446 572.287 32.0405 572.659 31.6689C573.03 31.2972 573.534 31.0884 574.06 31.0884H634.826C635.352 31.0884 635.856 31.2972 636.228 31.6689C636.599 32.0405 636.808 32.5446 636.808 33.0703C636.808 33.5959 636.599 34.1 636.228 34.4717C635.856 34.8433 635.352 35.0521 634.826 35.0521Z" fill="#1EA6CC"/>
<path d="M600.401 42.8822H574.06C573.534 42.8822 573.03 42.6734 572.659 42.3018C572.287 41.9301 572.078 41.426 572.078 40.9003C572.078 40.3747 572.287 39.8706 572.659 39.499C573.03 39.1273 573.534 38.9185 574.06 38.9185H600.401C600.926 38.9185 601.43 39.1273 601.802 39.499C602.174 39.8706 602.383 40.3747 602.383 40.9003C602.383 41.426 602.174 41.9301 601.802 42.3018C601.43 42.6734 600.926 42.8822 600.401 42.8822Z" fill="#1EA6CC"/>
<path d="M634.831 59.2834H574.065C573.805 59.2841 573.546 59.2334 573.305 59.1341C573.064 59.0348 572.845 58.8889 572.66 58.7048C572.476 58.5208 572.329 58.302 572.23 58.0612C572.13 57.8204 572.078 57.5623 572.078 57.3016C572.078 57.0409 572.13 56.7828 572.23 56.542C572.329 56.3012 572.476 56.0825 572.66 55.8984C572.845 55.7143 573.064 55.5684 573.305 55.4691C573.546 55.3699 573.805 55.3191 574.065 55.3198H634.831C635.092 55.3191 635.35 55.3699 635.592 55.4691C635.833 55.5684 636.052 55.7143 636.236 55.8984C636.421 56.0825 636.567 56.3012 636.667 56.542C636.767 56.7828 636.819 57.0409 636.819 57.3016C636.819 57.5623 636.767 57.8204 636.667 58.0612C636.567 58.302 636.421 58.5208 636.236 58.7048C636.052 58.8889 635.833 59.0348 635.592 59.1341C635.35 59.2334 635.092 59.2841 634.831 59.2834Z" fill="#E4E4E4"/>
<path d="M634.832 67.1137H574.065C573.805 67.1144 573.546 67.0636 573.305 66.9643C573.064 66.865 572.845 66.7192 572.661 66.5351C572.476 66.351 572.329 66.1323 572.23 65.8915C572.13 65.6506 572.078 65.3925 572.078 65.1318C572.078 64.8711 572.13 64.6129 572.23 64.3721C572.329 64.1313 572.476 63.9126 572.661 63.7285C572.845 63.5444 573.064 63.3985 573.305 63.2992C573.546 63.1999 573.805 63.1492 574.065 63.1499H634.832C635.092 63.1492 635.351 63.1999 635.592 63.2992C635.833 63.3985 636.052 63.5444 636.236 63.7285C636.421 63.9126 636.567 64.1313 636.667 64.3721C636.767 64.6129 636.819 64.8711 636.819 65.1318C636.819 65.3925 636.767 65.6506 636.667 65.8915C636.567 66.1323 636.421 66.351 636.236 66.5351C636.052 66.7192 635.833 66.865 635.592 66.9643C635.351 67.0636 635.092 67.1144 634.832 67.1137Z" fill="#E4E4E4"/>
<path d="M600.401 74.9457H574.06C573.534 74.9457 573.03 74.7369 572.659 74.3652C572.287 73.9936 572.078 73.4894 572.078 72.9638C572.078 72.4382 572.287 71.9341 572.659 71.5624C573.03 71.1908 573.534 70.9819 574.06 70.9819H600.401C600.926 70.9819 601.43 71.1908 601.802 71.5624C602.174 71.9341 602.383 72.4382 602.383 72.9638C602.383 73.4894 602.174 73.9936 601.802 74.3652C601.43 74.7369 600.926 74.9457 600.401 74.9457Z" fill="#E4E4E4"/>
</g>
<defs>
<clipPath id="clip0_183_688">
<rect width="1250" height="931.449" fill="white"/>
</clipPath>
</defs>
</svg>
